{
.appVersion = "1158";
DisplayStrings = (
"/a.001"
);
date = "2017-07-08 18:27:59 +0000";
familyName = "TCC Untitled";
fontMaster = (
{
alignmentZones = (
"{724, 14}",
"{685, 14}",
"{540, 14}",
"{500, 14}",
"{0, -14}",
"{-76, -14}",
"{-204, -14}"
);
ascender = 724;
capHeight = 685;
customParameters = (
{
name = paramArea;
value = "400";
},
{
name = paramDepth;
value = "10";
},
{
name = paramOver;
value = "New Value";
}
);
descender = -204;
guideLines = (
{
position = "{491, 639}";
}
);
horizontalStems = (
71
);
id = "44A3F285-AC1C-4A7F-B2BD-0C498DBF5AFB";
italicAngle = 10;
verticalStems = (
88
);
weightValue = 90;
xHeight = 500;
},
{
alignmentZones = (
"{728, 20}",
"{692, 20}",
"{506, 20}",
"{0, -20}",
"{-208, -20}"
);
ascender = 728;
capHeight = 692;
descender = -208;
guideLines = (
{
position = "{268, 403}";
}
);
id = "2F5B831B-86AF-41A9-958D-3871EE4B7007";
weight = Bold;
weightValue = 200;
xHeight = 506;
}
);
glyphs = (
{
glyphname = A;
lastChange = "2017-10-11 03:14:14 +0000";
layers = (
{
anchors = (
{
name = bottom;
position = "{273, 0}";
},
{
name = ogonek;
position = "{489, 10}";
},
{
name = top;
position = "{273, 685}";
}
);
layerId = "44A3F285-AC1C-4A7F-B2BD-0C498DBF5AFB";
paths = (
{
closed = 1;
nodes = (
"321 685 LINE",
"223 685 LINE",
"8 0 LINE",
"101 0 LINE",
"272 601 LINE",
"439 0 LINE",
"538 0 LINE"
);
},
{
closed = 1;
nodes = (
"170 285 LINE",
"149 214 LINE",
"393 214 LINE",
"373 285 LINE"
);
}
);
width = 546;
},
{
layerId = "2F5B831B-86AF-41A9-958D-3871EE4B7007";
paths = (
{
closed = 1;
nodes = (
"429 692 LINE",
"202 692 LINE",
"10 0 LINE",
"205 0 LINE",
"317 539 LINE",
"424 0 LINE",
"644 0 LINE"
);
},
{
closed = 1;
nodes = (
"214 295 LINE",
"193 155 LINE",
"437 155 LINE",
"417 295 LINE"
);
}
);
width = 654;
}
);
unicode = 0041;
},
{
glyphname = B;
lastChange = "2017-10-07 22:49:32 +0000";
layers = (
{
anchors = (
{
name = bottom;
position = "{291, 0}";
},
{
name = top;
position = "{291, 685}";
}
);
layerId = "44A3F285-AC1C-4A7F-B2BD-0C498DBF5AFB";
paths = (
{
closed = 1;
nodes = (
"100 0 LINE",
"190 0 LINE",
"190 685 LINE",
"100 685 LINE"
);
},
{
closed = 1;
nodes = (
"277 333 LINE SMOOTH",
"384 333 OFFCURVE",
"415 262 OFFCURVE",
"415 201 CURVE SMOOTH",
"415 140 OFFCURVE",
"384 69 OFFCURVE",
"277 69 CURVE SMOOTH",
"163 69 LINE",
"163 0 LINE",
"292 0 LINE SMOOTH",
"456 0 OFFCURVE",
"512 101 OFFCURVE",
"512 201 CURVE SMOOTH",
"512 307 OFFCURVE",
"443 359 OFFCURVE",
"387 374 CURVE",
"443 404 OFFCURVE",
"473 467 OFFCURVE",
"473 527 CURVE SMOOTH",
"473 609 OFFCURVE",
"414 685 OFFCURVE",
"282 685 CURVE SMOOTH",
"133 685 LINE",
"133 617 LINE",
"265 617 LINE SMOOTH",
"353 617 OFFCURVE",
"384 563 OFFCURVE",
"384 514 CURVE SMOOTH",
"384 463 OFFCURVE",
"353 400 OFFCURVE",
"267 400 CURVE SMOOTH",
"144 400 LINE",
"144 333 LINE"
);
}
);
width = 572;
},
{
layerId = "2F5B831B-86AF-41A9-958D-3871EE4B7007";
paths = (
{
closed = 1;
nodes = (
"50 0 LINE",
"250 0 LINE",
"250 692 LINE",
"50 692 LINE"
);
},
{
closed = 1;
nodes = (
"169 293 LINE",
"265 293 LINE SMOOTH",
"304 293 OFFCURVE",
"342 275 OFFCURVE",
"342 213 CURVE SMOOTH",
"342 151 OFFCURVE",
"304 127 OFFCURVE",
"265 127 CURVE SMOOTH",
"169 127 LINE",
"169 0 LINE",
"340 0 LINE SMOOTH",
"470 0 OFFCURVE",
"558 94 OFFCURVE",
"558 213 CURVE SMOOTH",
"558 306 OFFCURVE",
"476 364 OFFCURVE",
"437 375 CURVE",
"473 392 OFFCURVE",
"525 442 OFFCURVE",
"525 516 CURVE SMOOTH",
"525 603 OFFCURVE",
"446 692 OFFCURVE",
"321 692 CURVE SMOOTH",
"169 692 LINE",
"169 565 LINE",
"265 565 LINE SMOOTH",
"304 565 OFFCURVE",
"328 538 OFFCURVE",
"328 493 CURVE SMOOTH",
"328 448 OFFCURVE",
"304 419 OFFCURVE",
"265 419 CURVE SMOOTH",
"169 419 LINE"
);
}
);
width = 579;
}
);
leftMetricsKey = H;
unicode = 0042;
},
{
glyphname = C;
lastChange = "2017-10-09 16:43:40 +0000";
layers = (
{
anchors = (
{
name = bottom;
position = "{303, 0}";
},
{
name = top;
position = "{275, 685}";
}
);
layerId = "44A3F285-AC1C-4A7F-B2BD-0C498DBF5AFB";
paths = (
{
closed = 1;
nodes = (
"457 671 OFFCURVE",
"398 697 OFFCURVE",
"327 697 CURVE SMOOTH",
"158 697 OFFCURVE",
"62 579 OFFCURVE",
"62 343 CURVE SMOOTH",
"62 108 OFFCURVE",
"158 -10 OFFCURVE",
"327 -10 CURVE SMOOTH",
"401 -10 OFFCURVE",
"457 13 OFFCURVE",
"502 45 CURVE",
"470 103 LINE",
"423 73 OFFCURVE",
"383 61 OFFCURVE",
"340 61 CURVE SMOOTH",
"216 61 OFFCURVE",
"160 161 OFFCURVE",
"160 343 CURVE SMOOTH",
"160 527 OFFCURVE",
"216 626 OFFCURVE",
"340 626 CURVE SMOOTH",
"386 626 OFFCURVE",
"424 612 OFFCURVE",
"470 581 CURVE",
"502 639 LINE"
);
}
);
width = 557;
},
{
layerId = "2F5B831B-86AF-41A9-958D-3871EE4B7007";
paths = (
{
closed = 1;
nodes = (
"505 682 OFFCURVE",
"429 710 OFFCURVE",
"342 710 CURVE SMOOTH",
"144 710 OFFCURVE",
"30 586 OFFCURVE",
"30 345 CURVE SMOOTH",
"30 103 OFFCURVE",
"144 -18 OFFCURVE",
"342 -18 CURVE SMOOTH",
"432 -18 OFFCURVE",
"504 6 OFFCURVE",
"550 36 CURVE",
"503 162 LINE",
"455 135 OFFCURVE",
"402 128 OFFCURVE",
"376 128 CURVE SMOOTH",
"296 128 OFFCURVE",
"238 178 OFFCURVE",
"238 346 CURVE SMOOTH",
"238 515 OFFCURVE",
"296 564 OFFCURVE",
"376 564 CURVE SMOOTH",
"407 564 OFFCURVE",
"452 555 OFFCURVE",
"493 523 CURVE",
"550 649 LINE"
);
}
);
width = 570;
}
);
leftMetricsKey = O;
unicode = 0043;
},
{
glyphname = D;
lastChange = "2017-10-07 22:50:35 +0000";
layers = (
{
anchors = (
{
name = bottom;
position = "{458, 0}";
},
{
name = center;
position = "{458, 343}";
},
{
name = top;
position = "{458, 685}";
}
);
layerId = "44A3F285-AC1C-4A7F-B2BD-0C498DBF5AFB";
paths = (
{
closed = 1;
nodes = (
"285 0 LINE SMOOTH",
"461 0 OFFCURVE",
"557 108 OFFCURVE",
"557 343 CURVE SMOOTH",
"557 579 OFFCURVE",
"461 685 OFFCURVE",
"285 685 CURVE SMOOTH",
"143 685 LINE",
"143 616 LINE",
"272 616 LINE",
"403 616 OFFCURVE",
"459 527 OFFCURVE",
"459 343 CURVE SMOOTH",
"459 161 OFFCURVE",
"403 69 OFFCURVE",
"272 69 CURVE SMOOTH",
"158 69 LINE",
"158 0 LINE"
);
},
{
closed = 1;
nodes = (
"190 0 LINE",
"190 685 LINE",
"100 685 LINE",
"100 0 LINE"
);
}
);
width = 619;
},
{
layerId = "2F5B831B-86AF-41A9-958D-3871EE4B7007";
paths = (
{
closed = 1;
nodes = (
"279 0 LINE SMOOTH",
"455 0 OFFCURVE",
"591 103 OFFCURVE",
"591 347 CURVE SMOOTH",
"591 586 OFFCURVE",
"455 692 OFFCURVE",
"279 692 CURVE SMOOTH",
"142 692 LINE",
"142 552 LINE",
"251 552 LINE SMOOTH",
"337 552 OFFCURVE",
"383 517 OFFCURVE",
"383 347 CURVE SMOOTH",
"383 178 OFFCURVE",
"337 140 OFFCURVE",
"251 140 CURVE SMOOTH",
"157 140 LINE",
"157 0 LINE"
);
},
{
closed = 1;
nodes = (
"250 0 LINE",
"250 692 LINE",
"50 692 LINE",
"50 0 LINE"
);
}
);
width = 621;
}
);
leftMetricsKey = H;
rightMetricsKey = O;
unicode = 0044;
},
{
glyphname = E;
lastChange = "2017-10-07 22:51:04 +0000";
layers = (
{
anchors = (
{
name = bottom;
position = "{272, 0}";
},
{
name = ogonek;
position = "{470, 10}";
},
{
name = top;
position = "{272, 685}";
},
{
name = topleft;
position = "{45, 685}";
}
);
layerId = "44A3F285-AC1C-4A7F-B2BD-0C498DBF5AFB";
paths = (
{
closed = 1;
nodes = (
"100 0 LINE",
"190 0 LINE",
"190 685 LINE",
"100 685 LINE"
);
},
{
closed = 1;
nodes = (
"133 399 LINE",
"133 325 LINE",
"443 325 LINE",
"443 399 LINE"
);
},
{
closed = 1;
nodes = (
"133 685 LINE",
"133 611 LINE",
"463 611 LINE",
"463 685 LINE"
);
},
{
closed = 1;
nodes = (
"133 74 LINE",
"133 0 LINE",
"463 0 LINE",
"463 74 LINE"
);
}
);
width = 533;
},
{
layerId = "2F5B831B-86AF-41A9-958D-3871EE4B7007";
paths = (
{
closed = 1;
nodes = (
"50 0 LINE",
"250 0 LINE",
"250 692 LINE",
"50 692 LINE"
);
},
{
closed = 1;
nodes = (
"157 438 LINE",
"157 278 LINE",
"479 278 LINE",
"479 438 LINE"
);
},
{
closed = 1;
nodes = (
"157 692 LINE",
"157 532 LINE",
"509 532 LINE",
"509 692 LINE"
);
},
{
closed = 1;
nodes = (
"157 160 LINE",
"157 0 LINE",
"509 0 LINE",
"509 160 LINE"
);
}
);
width = 557;
}
);
leftMetricsKey = H;
unicode = 0045;
},
{
glyphname = F;
lastChange = "2017-10-07 22:51:22 +0000";
layers = (
{
anchors = (
{
name = bottom;
position = "{267, 0}";
},
{
name = top;
position = "{267, 685}";
}
);
layerId = "44A3F285-AC1C-4A7F-B2BD-0C498DBF5AFB";
paths = (
{
closed = 1;
nodes = (
"100 0 LINE",
"190 0 LINE",
"190 685 LINE",
"100 685 LINE"
);
},
{
closed = 1;
nodes = (
"133 394 LINE",
"133 320 LINE",
"437 320 LINE",
"437 394 LINE"
);
},
{
closed = 1;
nodes = (
"133 685 LINE",
"133 611 LINE",
"455 611 LINE",
"455 685 LINE"
);
}
);
width = 515;
},
{
layerId = "2F5B831B-86AF-41A9-958D-3871EE4B7007";
paths = (
{
closed = 1;
nodes = (
"50 0 LINE",
"250 0 LINE",
"250 692 LINE",
"50 692 LINE"
);
},
{
closed = 1;
nodes = (
"157 428 LINE",
"157 268 LINE",
"479 268 LINE",
"479 428 LINE"
);
},
{
closed = 1;
nodes = (
"157 692 LINE",
"157 532 LINE",
"509 532 LINE",
"509 692 LINE"
);
}
);
width = 539;
}
);
leftMetricsKey = H;
unicode = 0046;
},
{
glyphname = G;
lastChange = "2017-10-07 22:54:54 +0000";
layers = (
{
anchors = (
{
name = bottom;
position = "{457, 0}";
},
{
name = top;
position = "{457, 685}";
}
);
layerId = "44A3F285-AC1C-4A7F-B2BD-0C498DBF5AFB";
paths = (
{
closed = 1;
nodes = (
"62 108 OFFCURVE",
"153 -10 OFFCURVE",
"322 -10 CURVE SMOOTH",
"400 -10 OFFCURVE",
"477 15 OFFCURVE",
"531 53 CURVE",
"531 392 LINE",
"316 392 LINE",
"316 320 LINE",
"444 320 LINE",
"444 90 LINE",
"415 72 OFFCURVE",
"374 59 OFFCURVE",
"331 59 CURVE SMOOTH",
"211 59 OFFCURVE",
"160 161 OFFCURVE",
"160 343 CURVE SMOOTH",
"160 527 OFFCURVE",
"215 628 OFFCURVE",
"354 628 CURVE SMOOTH",
"404 628 OFFCURVE",
"438 614 OFFCURVE",
"484 583 CURVE",
"516 639 LINE",
"471 671 OFFCURVE",
"417 697 OFFCURVE",
"341 697 CURVE SMOOTH",
"157 697 OFFCURVE",
"62 579 OFFCURVE",
"62 343 CURVE SMOOTH"
);
}
);
width = 623;
},
{
layerId = "2F5B831B-86AF-41A9-958D-3871EE4B7007";
paths = (
{
closed = 1;
nodes = (
"30 104 OFFCURVE",
"181 -18 OFFCURVE",
"359 -18 CURVE SMOOTH",
"445 -18 OFFCURVE",
"540 9 OFFCURVE",
"610 45 CURVE",
"610 421 LINE",
"339 421 LINE",
"339 281 LINE",
"420 281 LINE",
"420 142 LINE",
"393 127 OFFCURVE",
"369 125 OFFCURVE",
"356 125 CURVE SMOOTH",
"289 125 OFFCURVE",
"248 178 OFFCURVE",
"248 345 CURVE SMOOTH",
"248 515 OFFCURVE",
"305 568 OFFCURVE",
"393 568 CURVE SMOOTH",
"451 568 OFFCURVE",
"499 545 OFFCURVE",
"542 513 CURVE",
"584 640 LINE",
"538 673 OFFCURVE",
"473 710 OFFCURVE",
"368 710 CURVE SMOOTH",
"165 710 OFFCURVE",
"30 588 OFFCURVE",
"30 345 CURVE SMOOTH"
);
}
);
width = 645;
}
);
leftMetricsKey = O;
unicode = 0047;
},
{
glyphname = H;
lastChange = "2017-10-07 22:41:43 +0000";
layers = (
{
anchors = (
{
name = bottom;
position = "{323, 0}";
},
{
name = center;
position = "{323, 343}";
},
{
name = top;
position = "{323, 685}";
},
{
name = topleft;
position = "{41, 685}";
}
);
layerId = "44A3F285-AC1C-4A7F-B2BD-0C498DBF5AFB";
paths = (
{
closed = 1;
nodes = (
"100 0 LINE",
"190 0 LINE",
"190 685 LINE",
"100 685 LINE"
);
},
{
closed = 1;
nodes = (
"455 0 LINE",
"545 0 LINE",
"545 685 LINE",
"455 685 LINE"
);
},
{
closed = 1;
nodes = (
"162 402 LINE",
"162 328 LINE",
"484 328 LINE",
"484 402 LINE"
);
}
);
width = 645;
},
{
layerId = "2F5B831B-86AF-41A9-958D-3871EE4B7007";
paths = (
{
closed = 1;
nodes = (
"50 0 LINE",
"250 0 LINE",
"250 692 LINE",
"50 692 LINE"
);
},
{
closed = 1;
nodes = (
"385 0 LINE",
"585 0 LINE",
"585 692 LINE",
"385 692 LINE"
);
},
{
closed = 1;
nodes = (
"152 447 LINE",
"152 287 LINE",
"474 287 LINE",
"474 447 LINE"
);
}
);
width = 635;
}
);
unicode = 0048;
},
{
glyphname = I;
lastChange = "2017-10-07 22:41:51 +0000";
layers = (
{
anchors = (
{
name = bottom;
position = "{145, 0}";
},
{
name = ogonek;
position = "{247, 10}";
},
{
name = top;
position = "{145, 685}";
},
{
name = topleft;
position = "{38, 685}";
}
);
layerId = "44A3F285-AC1C-4A7F-B2BD-0C498DBF5AFB";
paths = (
{
closed = 1;
nodes = (
"100 0 LINE",
"190 0 LINE",
"190 685 LINE",
"100 685 LINE"
);
}
);
width = 290;
},
{
layerId = "2F5B831B-86AF-41A9-958D-3871EE4B7007";
paths = (
{
closed = 1;
nodes = (
"50 0 LINE",
"250 0 LINE",
"250 692 LINE",
"50 692 LINE"
);
}
);
width = 300;
}
);
leftMetricsKey = H;
rightMetricsKey = H;
unicode = 0049;
},
{
glyphname = J;
lastChange = "2017-10-07 22:57:44 +0000";
layers = (
{
anchors = (
{
name = bottom;
position = "{130, 0}";
},
{
name = top;
position = "{130, 685}";
}
);
layerId = "44A3F285-AC1C-4A7F-B2BD-0C498DBF5AFB";
paths = (
{
closed = 1;
nodes = (
"-12 -95 LINE",
"114 -87 OFFCURVE",
"195 -23 OFFCURVE",
"195 106 CURVE SMOOTH",
"195 685 LINE",
"105 685 LINE",
"105 95 LINE SMOOTH",
"105 21 OFFCURVE",
"56 -19 OFFCURVE",
"-18 -27 CURVE"
);
}
);
width = 295;
},
{
layerId = "2F5B831B-86AF-41A9-958D-3871EE4B7007";
paths = (
{
closed = 1;
nodes = (
"-12 -160 LINE",
"152 -148 OFFCURVE",
"245 -68 OFFCURVE",
"245 88 CURVE SMOOTH",
"245 692 LINE",
"55 692 LINE",
"55 66 LINE SMOOTH",
"55 17 OFFCURVE",
"33 -21 OFFCURVE",
"-20 -31 CURVE"
);
}
);
width = 295;
}
);
rightMetricsKey = H;
unicode = 004A;
},
{
glyphname = K;
lastChange = "2017-10-07 23:27:32 +0000";
layers = (
{
anchors = (
{
name = bottom;
position = "{269, 0}";
},
{
name = top;
position = "{269, 685}";
}
);
layerId = "44A3F285-AC1C-4A7F-B2BD-0C498DBF5AFB";
paths = (
{
closed = 1;
nodes = (
"100 0 LINE",
"190 0 LINE",
"190 685 LINE",
"100 685 LINE"
);
},
{
closed = 1;
nodes = (
"544 0 LINE",
"278 366 LINE",
"515 685 LINE",
"412 685 LINE",
"186 371 LINE",
"186 349 LINE",
"429 0 LINE"
);
}
);
width = 534;
},
{
layerId = "2F5B831B-86AF-41A9-958D-3871EE4B7007";
paths = (
{
closed = 1;
nodes = (
"50 0 LINE",
"240 0 LINE",
"240 692 LINE",
"50 692 LINE"
);
},
{
closed = 1;
nodes = (
"632 0 LINE",
"399 385 LINE",
"603 692 LINE",
"403 692 LINE",
"236 396 LINE",
"236 364 LINE",
"402 0 LINE"
);
}
);
width = 622;
}
);
leftMetricsKey = H;
unicode = 004B;
},
{
glyphname = L;
lastChange = "2017-10-08 00:10:55 +0000";
layers = (
{
anchors = (
{
name = bottom;
position = "{250, 0}";
},
{
name = center;
position = "{250, 343}";
},
{
name = top;
position = "{250, 685}";
},
{
name = topright;
position = "{450, 685}";
}
);
layerId = "44A3F285-AC1C-4A7F-B2BD-0C498DBF5AFB";
paths = (
{
closed = 1;
nodes = (
"100 0 LINE",
"190 0 LINE",
"190 685 LINE",
"100 685 LINE"
);
},
{
closed = 1;
nodes = (
"171 74 LINE",
"171 0 LINE",
"455 0 LINE",
"455 74 LINE"
);
}
);
width = 485;
},
{
layerId = "2F5B831B-86AF-41A9-958D-3871EE4B7007";
paths = (
{
closed = 1;
nodes = (
"50 0 LINE",
"250 0 LINE",
"250 692 LINE",
"50 692 LINE"
);
},
{
closed = 1;
nodes = (
"157 160 LINE",
"157 0 LINE",
"489 0 LINE",
"489 160 LINE"
);
}
);
width = 504;
}
);
leftMetricsKey = H;
unicode = 004C;
},
{
glyphname = M;
lastChange = "2017-10-08 00:11:28 +0000";
layers = (
{
anchors = (
{
name = bottom;
position = "{384, 0}";
},
{
name = top;
position = "{384, 685}";
}
);
layerId = "44A3F285-AC1C-4A7F-B2BD-0C498DBF5AFB";
paths = (
{
closed = 1;
nodes = (
"153 0 LINE",
"192 600 LINE",
"327 46 LINE",
"422 46 LINE",
"559 600 LINE",
"606 0 LINE",
"702 0 LINE",
"631 685 LINE",
"501 685 LINE",
"379 138 LINE",
"259 685 LINE",
"123 685 LINE",
"65 0 LINE"
);
}
);
width = 767;
},
{
layerId = "2F5B831B-86AF-41A9-958D-3871EE4B7007";
paths = (
{
closed = 1;
nodes = (
"189 0 LINE",
"209 505 LINE",
"280 38 LINE",
"511 38 LINE",
"580 505 LINE",
"611 0 LINE",
"818 0 LINE",
"726 692 LINE",
"471 692 LINE",
"405 215 LINE",
"328 692 LINE",
"69 692 LINE",
"5 0 LINE"
);
}
);
width = 823;
}
);
unicode = 004D;
},
{
glyphname = N;
lastChange = "2017-10-07 22:41:51 +0000";
layers = (
{
anchors = (
{
name = bottom;
position = "{325, 0}";
},
{
name = top;
position = "{325, 685}";
}
);
layerId = "44A3F285-AC1C-4A7F-B2BD-0C498DBF5AFB";
paths = (
{
closed = 1;
nodes = (
"187 0 LINE",
"187 409 LINE SMOOTH",
"187 499 OFFCURVE",
"183 555 OFFCURVE",
"179 595 CURVE",
"425 0 LINE",
"549 0 LINE",
"549 685 LINE",
"462 685 LINE",
"462 301 LINE SMOOTH",
"462 211 OFFCURVE",
"466 140 OFFCURVE",
"470 100 CURVE",
"219 685 LINE",
"100 685 LINE",
"100 0 LINE"
);
}
);
width = 649;
},
{
layerId = "2F5B831B-86AF-41A9-958D-3871EE4B7007";
paths = (
{
closed = 1;
nodes = (
"228 0 LINE",
"228 353 LINE SMOOTH",
"228 444 OFFCURVE",
"223 491 OFFCURVE",
"215 541 CURVE",
"349 0 LINE",
"624 0 LINE",
"624 692 LINE",
"446 692 LINE",
"446 364 LINE SMOOTH",
"446 273 OFFCURVE",
"451 211 OFFCURVE",
"459 161 CURVE",
"320 692 LINE",
"50 692 LINE",
"50 0 LINE"
);
}
);
width = 674;
}
);
leftMetricsKey = H;
rightMetricsKey = H;
unicode = 004E;
},
{
glyphname = O;
lastChange = "2017-10-08 00:19:15 +0000";
layers = (
{
anchors = (
{
name = bottom;
position = "{321, 0}";
},
{
name = center;
position = "{321, 343}";
},
{
name = ogonek;
position = "{564, 10}";
},
{
name = top;
position = "{321, 685}";
},
{
name = topleft;
position = "{37, 685}";
},
{
name = topright;
position = "{605, 685}";
}
);
layerId = "44A3F285-AC1C-4A7F-B2BD-0C498DBF5AFB";
paths = (
{
closed = 1;
nodes = (
"496 -10 OFFCURVE",
"580 120 OFFCURVE",
"580 343 CURVE SMOOTH",
"580 567 OFFCURVE",
"496 697 OFFCURVE",
"316 697 CURVE SMOOTH",
"137 697 OFFCURVE",
"62 567 OFFCURVE",
"62 343 CURVE SMOOTH",
"62 120 OFFCURVE",
"137 -10 OFFCURVE",
"316 -10 CURVE SMOOTH"
);
},
{
closed = 1;
nodes = (
"196 61 OFFCURVE",
"160 170 OFFCURVE",
"160 343 CURVE SMOOTH",
"160 518 OFFCURVE",
"196 626 OFFCURVE",
"316 626 CURVE SMOOTH",
"435 626 OFFCURVE",
"482 518 OFFCURVE",
"482 343 CURVE SMOOTH",
"482 170 OFFCURVE",
"435 61 OFFCURVE",
"316 61 CURVE SMOOTH"
);
}
);
width = 642;
},
{
layerId = "2F5B831B-86AF-41A9-958D-3871EE4B7007";
paths = (
{
closed = 1;
nodes = (
"535 -18 OFFCURVE",
"643 106 OFFCURVE",
"643 345 CURVE SMOOTH",
"643 586 OFFCURVE",
"535 710 OFFCURVE",
"332 710 CURVE SMOOTH",
"129 710 OFFCURVE",
"30 586 OFFCURVE",
"30 345 CURVE SMOOTH",
"30 106 OFFCURVE",
"129 -18 OFFCURVE",
"332 -18 CURVE SMOOTH"
);
},
{
closed = 1;
nodes = (
"265 121 OFFCURVE",
"245 188 OFFCURVE",
"245 343 CURVE SMOOTH",
"245 500 OFFCURVE",
"265 570 OFFCURVE",
"333 570 CURVE SMOOTH",
"399 570 OFFCURVE",
"425 500 OFFCURVE",
"425 343 CURVE SMOOTH",
"425 188 OFFCURVE",
"399 121 OFFCURVE",
"333 121 CURVE SMOOTH"
);
}
);
width = 673;
}
);
unicode = 004F;
},
{
glyphname = P;
lastChange = "2017-10-07 22:41:51 +0000";
layers = (
{
anchors = (
{
name = bottom;
position = "{274, 0}";
},
{
name = top;
position = "{274, 685}";
}
);
layerId = "44A3F285-AC1C-4A7F-B2BD-0C498DBF5AFB";
paths = (
{
closed = 1;
nodes = (
"100 0 LINE",
"190 0 LINE",
"190 685 LINE",
"100 685 LINE"
);
},
{
closed = 1;
nodes = (
"284 287 LINE SMOOTH",
"413 287 OFFCURVE",
"482 370 OFFCURVE",
"482 489 CURVE SMOOTH",
"482 604 OFFCURVE",
"415 685 OFFCURVE",
"284 685 CURVE SMOOTH",
"133 685 LINE",
"133 617 LINE",
"265 617 LINE SMOOTH",
"361 617 OFFCURVE",
"386 549 OFFCURVE",
"386 489 CURVE SMOOTH",
"386 429 OFFCURVE",
"361 357 OFFCURVE",
"265 357 CURVE SMOOTH",
"133 357 LINE",
"133 287 LINE"
);
}
);
width = 532;
},
{
layerId = "2F5B831B-86AF-41A9-958D-3871EE4B7007";
paths = (
{
closed = 1;
nodes = (
"50 0 LINE",
"250 0 LINE",
"250 692 LINE",
"50 692 LINE"
);
},
{
closed = 1;
nodes = (
"336 254 LINE SMOOTH",
"465 254 OFFCURVE",
"544 357 OFFCURVE",
"544 476 CURVE SMOOTH",
"544 591 OFFCURVE",
"467 692 OFFCURVE",
"336 692 CURVE SMOOTH",
"135 692 LINE",
"135 552 LINE",
"268 552 LINE SMOOTH",
"308 552 OFFCURVE",
"333 520 OFFCURVE",
"333 476 CURVE SMOOTH",
"333 432 OFFCURVE",
"308 392 OFFCURVE",
"268 392 CURVE SMOOTH",
"135 392 LINE",
"135 254 LINE"
);
}
);
width = 559;
}
);
leftMetricsKey = H;
unicode = 0050;
},
{
glyphname = Q;
lastChange = "2017-10-08 00:19:49 +0000";
layers = (
{
anchors = (
{
name = bottom;
position = "{322, 0}";
},
{
name = top;
position = "{322, 685}";
}
);
layerId = "44A3F285-AC1C-4A7F-B2BD-0C498DBF5AFB";
paths = (
{
closed = 1;
nodes = (
"325 -10 OFFCURVE",
"341 -9 OFFCURVE",
"343 -8 CURVE SMOOTH",
"451 31 LINE",
"536 84 OFFCURVE",
"580 196 OFFCURVE",
"580 343 CURVE SMOOTH",
"580 567 OFFCURVE",
"496 697 OFFCURVE",
"316 697 CURVE SMOOTH",
"137 697 OFFCURVE",
"62 567 OFFCURVE",
"62 343 CURVE SMOOTH",
"62 120 OFFCURVE",
"137 -10 OFFCURVE",
"316 -10 CURVE SMOOTH"
);
},
{
closed = 1;
nodes = (
"196 61 OFFCURVE",
"160 170 OFFCURVE",
"160 343 CURVE SMOOTH",
"160 518 OFFCURVE",
"196 626 OFFCURVE",
"316 626 CURVE SMOOTH",
"435 626 OFFCURVE",
"482 518 OFFCURVE",
"482 343 CURVE SMOOTH",
"482 170 OFFCURVE",
"435 61 OFFCURVE",
"316 61 CURVE SMOOTH"
);
},
{
closed = 1;
nodes = (
"632 -59 LINE",
"602 -48 OFFCURVE",
"568 -31 OFFCURVE",
"532 -13 CURVE SMOOTH",
"495 6 OFFCURVE",
"457 24 OFFCURVE",
"441 28 CURVE",
"316 -10 LINE",
"380 -10 OFFCURVE",
"403 -25 OFFCURVE",
"477 -77 CURVE SMOOTH",
"518 -106 OFFCURVE",
"554 -131 OFFCURVE",
"598 -153 CURVE"
);
}
);
width = 646;
},
{
layerId = "2F5B831B-86AF-41A9-958D-3871EE4B7007";
paths = (
{
closed = 1;
nodes = (
"680 -19 LINE",
"643 -8 OFFCURVE",
"620 -1 OFFCURVE",
"584 13 CURVE SMOOTH",
"546 28 OFFCURVE",
"530 33 OFFCURVE",
"515 34 CURVE",
"334 -18 LINE",
"402 -18 OFFCURVE",
"426 -36 OFFCURVE",
"493 -90 CURVE SMOOTH",
"548 -134 OFFCURVE",
"579 -157 OFFCURVE",
"632 -180 CURVE"
);
},
{
closed = 1;
nodes = (
"535 -18 OFFCURVE",
"643 106 OFFCURVE",
"643 345 CURVE SMOOTH",
"643 586 OFFCURVE",
"535 710 OFFCURVE",
"332 710 CURVE SMOOTH",
"129 710 OFFCURVE",
"30 586 OFFCURVE",
"30 345 CURVE SMOOTH",
"30 106 OFFCURVE",
"129 -18 OFFCURVE",
"332 -18 CURVE SMOOTH"
);
},
{
closed = 1;
nodes = (
"265 121 OFFCURVE",
"245 188 OFFCURVE",
"245 343 CURVE SMOOTH",
"245 500 OFFCURVE",
"265 570 OFFCURVE",
"333 570 CURVE SMOOTH",
"399 570 OFFCURVE",
"425 500 OFFCURVE",
"425 343 CURVE SMOOTH",
"425 188 OFFCURVE",
"399 121 OFFCURVE",
"333 121 CURVE SMOOTH"
);
}
);
width = 680;
}
);
leftMetricsKey = O;
unicode = 0051;
},
{
glyphname = R;
lastChange = "2017-10-09 17:14:18 +0000";
layers = (
{
anchors = (
{
name = bottom;
position = "{286, 0}";
},
{
name = top;
position = "{286, 685}";
}
);
layerId = "44A3F285-AC1C-4A7F-B2BD-0C498DBF5AFB";
paths = (
{
closed = 1;
nodes = (
"100 0 LINE",
"190 0 LINE",
"190 685 LINE",
"100 685 LINE"
);
},
{
closed = 1;
nodes = (
"417 0 LINE",
"523 0 LINE",
"523 5 LINE",
"311 321 LINE",
"224 316 LINE"
);
},
{
closed = 1;
nodes = (
"314 306 LINE",
"395 316 OFFCURVE",
"483 381 OFFCURVE",
"483 500 CURVE SMOOTH",
"483 612 OFFCURVE",
"412 685 OFFCURVE",
"284 685 CURVE SMOOTH",
"157 685 LINE",
"157 617 LINE",
"265 617 LINE SMOOTH",
"358 617 OFFCURVE",
"387 557 OFFCURVE",
"387 500 CURVE SMOOTH",
"387 440 OFFCURVE",
"358 373 OFFCURVE",
"265 373 CURVE SMOOTH",
"157 373 LINE",
"157 306 LINE"
);
}
);
width = 552;
},
{
layerId = "2F5B831B-86AF-41A9-958D-3871EE4B7007";
paths = (
{
closed = 1;
nodes = (
"50 0 LINE",
"250 0 LINE",
"250 692 LINE",
"50 692 LINE"
);
},
{
closed = 1;
nodes = (
"336 262 LINE SMOOTH",
"465 262 OFFCURVE",
"544 358 OFFCURVE",
"544 477 CURVE SMOOTH",
"544 592 OFFCURVE",
"467 692 OFFCURVE",
"336 692 CURVE SMOOTH",
"135 692 LINE",
"135 552 LINE",
"268 552 LINE SMOOTH",
"308 552 OFFCURVE",
"333 521 OFFCURVE",
"333 477 CURVE SMOOTH",
"333 433 OFFCURVE",
"308 394 OFFCURVE",
"268 394 CURVE SMOOTH",
"135 394 LINE",
"135 262 LINE"
);
},
{
closed = 1;
nodes = (
"371 0 LINE",
"598 0 LINE",
"598 5 LINE",
"416 294 LINE",
"239 294 LINE"
);
}
);
width = 583;
}
);
leftMetricsKey = H;
unicode = 0052;
},
{
glyphname = S;
lastChange = "2017-10-09 17:17:21 +0000";
layers = (
{
anchors = (
{
name = bottom;
position = "{245, 0}";
},
{
name = top;
position = "{245, 685}";
}
);
annotations = (
{
position = "{106.069, 597.031}";
type = Minus;
}
);
layerId = "44A3F285-AC1C-4A7F-B2BD-0C498DBF5AFB";
paths = (
{
closed = 1;
nodes = (
"363 678 OFFCURVE",
"315 697 OFFCURVE",
"249 697 CURVE SMOOTH",
"123 697 OFFCURVE",
"48 629 OFFCURVE",
"48 528 CURVE SMOOTH",
"48 462 OFFCURVE",
"79 396 OFFCURVE",
"209 330 CURVE SMOOTH",
"313 277 OFFCURVE",
"356 249 OFFCURVE",
"356 186 CURVE SMOOTH",
"356 127 OFFCURVE",
"320 63 OFFCURVE",
"225 63 CURVE SMOOTH",
"166 63 OFFCURVE",
"114 87 OFFCURVE",
"67 130 CURVE",
"30 63 LINE",
"83 16 OFFCURVE",
"152 -12 OFFCURVE",
"231 -12 CURVE SMOOTH",
"372 -12 OFFCURVE",
"448 76 OFFCURVE",
"448 188 CURVE SMOOTH",
"448 288 OFFCURVE",
"386 336 OFFCURVE",
"277 391 CURVE SMOOTH",
"170 445 OFFCURVE",
"139 476 OFFCURVE",
"139 528 CURVE SMOOTH",
"139 585 OFFCURVE",
"176 627 OFFCURVE",
"253 627 CURVE SMOOTH",
"297 627 OFFCURVE",
"343 613 OFFCURVE",
"385 587 CURVE",
"412 652 LINE"
);
}
);
width = 508;
},
{
layerId = "2F5B831B-86AF-41A9-958D-3871EE4B7007";
paths = (
{
closed = 1;
nodes = (
"423 689 OFFCURVE",
"368 710 OFFCURVE",
"257 710 CURVE SMOOTH",
"126 710 OFFCURVE",
"22 636 OFFCURVE",
"22 507 CURVE SMOOTH",
"22 417 OFFCURVE",
"74 352 OFFCURVE",
"188 297 CURVE SMOOTH",
"286 250 OFFCURVE",
"316 234 OFFCURVE",
"316 196 CURVE SMOOTH",
"316 155 OFFCURVE",
"281 142 OFFCURVE",
"233 142 CURVE SMOOTH",
"156 142 OFFCURVE",
"95 177 OFFCURVE",
"53 211 CURVE",
"-15 69 LINE",
"53 16 OFFCURVE",
"138 -18 OFFCURVE",
"252 -18 CURVE SMOOTH",
"392 -18 OFFCURVE",
"525 48 OFFCURVE",
"525 194 CURVE SMOOTH",
"525 310 OFFCURVE",
"426 368 OFFCURVE",
"325 419 CURVE SMOOTH",
"232 466 OFFCURVE",
"225 484 OFFCURVE",
"225 507 CURVE SMOOTH",
"225 542 OFFCURVE",
"249 559 OFFCURVE",
"299 559 CURVE SMOOTH",
"343 559 OFFCURVE",
"378 547 OFFCURVE",
"425 520 CURVE",
"478 663 LINE"
);
}
);
width = 525;
}
);
unicode = 0053;
},
{
glyphname = T;
lastChange = "2017-10-13 05:42:49 +0000";
layers = (
{
anchors = (
{
name = bottom;
position = "{215, 0}";
},
{
name = center;
position = "{215, 343}";
},
{
name = top;
position = "{215, 685}";
}
);
layerId = "44A3F285-AC1C-4A7F-B2BD-0C498DBF5AFB";
paths = (
{
closed = 1;
nodes = (
"170 0 LINE",
"260 0 LINE",
"260 685 LINE",
"170 685 LINE"
);
},
{
closed = 1;
nodes = (
"10 685 LINE",
"10 612 LINE",
"420 612 LINE",
"420 685 LINE"
);
}
);
width = 430;
},
{
layerId = "2F5B831B-86AF-41A9-958D-3871EE4B7007";
paths = (
{
closed = 1;
nodes = (
"151 0 LINE",
"351 0 LINE",
"351 692 LINE",
"151 692 LINE"
);
},
{
closed = 1;
nodes = (
"12 692 LINE",
"12 549 LINE",
"490 549 LINE",
"490 692 LINE"
);
}
);
width = 502;
}
);
unicode = 0054;
},
{
glyphname = U;
lastChange = "2017-10-09 16:43:25 +0000";
layers = (
{
anchors = (
{
name = bottom;
position = "{309, 0}";
},
{
name = ogonek;
position = "{531, 10}";
},
{
name = top;
position = "{309, 685}";
},
{
name = topright;
position = "{567, 685}";
}
);
layerId = "44A3F285-AC1C-4A7F-B2BD-0C498DBF5AFB";
paths = (
{
closed = 1;
nodes = (
"473 -12 OFFCURVE",
"527 83 OFFCURVE",
"527 247 CURVE SMOOTH",
"527 685 LINE",
"439 685 LINE",
"439 262 LINE SMOOTH",
"439 135 OFFCURVE",
"407 62 OFFCURVE",
"309 62 CURVE SMOOTH",
"211 62 OFFCURVE",
"180 135 OFFCURVE",
"180 257 CURVE SMOOTH",
"180 685 LINE",
"90 685 LINE",
"90 247 LINE SMOOTH",
"90 83 OFFCURVE",
"148 -12 OFFCURVE",
"309 -12 CURVE SMOOTH"
);
}
);
width = 617;
},
{
layerId = "2F5B831B-86AF-41A9-958D-3871EE4B7007";
paths = (
{
closed = 1;
nodes = (
"475 -12 OFFCURVE",
"561 73 OFFCURVE",
"561 247 CURVE SMOOTH",
"561 692 LINE",
"361 692 LINE",
"361 321 LINE SMOOTH",
"361 194 OFFCURVE",
"359 142 OFFCURVE",
"293 142 CURVE SMOOTH",
"227 142 OFFCURVE",
"225 194 OFFCURVE",
"225 321 CURVE SMOOTH",
"225 692 LINE",
"24 692 LINE",
"24 247 LINE SMOOTH",
"24 73 OFFCURVE",
"116 -12 OFFCURVE",
"294 -12 CURVE SMOOTH"
);
}
);
width = 600;
}
);
unicode = 0055;
},
{
glyphname = V;
lastChange = "2017-10-13 05:40:24 +0000";
layers = (
{
anchors = (
{
name = bottom;
position = "{283, 0}";
},
{
name = top;
position = "{283, 685}";
}
);
layerId = "44A3F285-AC1C-4A7F-B2BD-0C498DBF5AFB";
paths = (
{
closed = 1;
nodes = (
"231 0 LINE",
"329 0 LINE",
"535 685 LINE",
"442 685 LINE",
"282 101 LINE",
"129 685 LINE",
"30 685 LINE"
);
}
);
width = 565;
},
{
layerId = "2F5B831B-86AF-41A9-958D-3871EE4B7007";
paths = (
{
closed = 1;
nodes = (
"196 0 LINE",
"424 0 LINE",
"615 692 LINE",
"419 692 LINE",
"312 154 LINE",
"214 692 LINE",
"-4 692 LINE"
);
}
);
width = 615;
}
);
unicode = 0056;
},
{
glyphname = W;
lastChange = "2017-10-13 05:42:19 +0000";
layers = (
{
anchors = (
{
name = bottom;
position = "{445, 0}";
},
{
name = top;
position = "{397, 685}";
}
);
layerId = "44A3F285-AC1C-4A7F-B2BD-0C498DBF5AFB";
paths = (
{
closed = 1;
nodes = (
"169 0 LINE",
"275 0 LINE",
"393 579 LINE",
"507 0 LINE",
"619 0 LINE",
"771 685 LINE",
"678 685 LINE",
"568 99 LINE",
"453 685 LINE",
"344 685 LINE",
"226 98 LINE",
"119 685 LINE",
"20 685 LINE"
);
}
);
width = 791;
},
{
layerId = "2F5B831B-86AF-41A9-958D-3871EE4B7007";
paths = (
{
closed = 1;
nodes = (
"119 0 LINE",
"377 0 LINE",
"436 512 LINE",
"496 0 LINE",
"754 0 LINE",
"864 692 LINE",
"668 692 LINE",
"619 188 LINE",
"565 692 LINE",
"327 692 LINE",
"266 188 LINE",
"218 692 LINE",
"4 692 LINE"
);
}
);
width = 868;
}
);
unicode = 0057;
},
{
glyphname = X;
lastChange = "2017-10-13 05:42:28 +0000";
layers = (
{
anchors = (
{
name = bottom;
position = "{387, 0}";
},
{
name = top;
position = "{387, 685}";
}
);
annotations = (
{
position = "{237.531, 332.563}";
type = Plus;
},
{
position = "{236.682, 417.202}";
type = Plus;
},
{
position = "{306.864, 423.012}";
type = Plus;
},
{
position = "{301.145, 335.123}";
type = Plus;
}
);
guideLines = (
{
angle = 90;
position = "{20, -5}";
},
{
angle = 90;
position = "{545, -23}";
}
);
layerId = "44A3F285-AC1C-4A7F-B2BD-0C498DBF5AFB";
paths = (
{
closed = 1;
nodes = (
"153 685 LINE",
"285 431 LINE",
"338 370 LINE",
"545 0 LINE",
"432 0 LINE",
"284 306 LINE",
"230 370 LINE",
"40 685 LINE"
);
},
{
closed = 1;
nodes = (
"525 685 LINE",
"338 370 LINE",
"284 306 LINE",
"125 0 LINE",
"20 0 LINE",
"230 370 LINE",
"285 431 LINE",
"420 685 LINE"
);
}
);
width = 565;
},
{
layerId = "2F5B831B-86AF-41A9-958D-3871EE4B7007";
width = 600;
}
);
unicode = 0058;
},
{
glyphname = Y;
lastChange = "2017-10-13 05:40:35 +0000";
layers = (
{
anchors = (
{
name = bottom;
position = "{237, 0}";
},
{
name = top;
position = "{242, 685}";
},
{
name = topleft;
position = "{-2, 685}";
}
);
layerId = "44A3F285-AC1C-4A7F-B2BD-0C498DBF5AFB";
paths = (
{
closed = 1;
nodes = (
"192 312 LINE",
"192 0 LINE",
"282 0 LINE",
"282 312 LINE",
"484 685 LINE",
"391 685 LINE",
"242 384 LINE",
"94 685 LINE",
"-5 685 LINE"
);
}
);
width = 479;
},
{
layerId = "2F5B831B-86AF-41A9-958D-3871EE4B7007";
paths = (
{
closed = 1;
nodes = (
"196 286 LINE",
"196 0 LINE",
"396 0 LINE",
"396 286 LINE",
"590 692 LINE",
"394 692 LINE",
"301 435 LINE",
"213 692 LINE",
"-5 692 LINE"
);
}
);
width = 590;
}
);
unicode = 0059;
},
{
glyphname = Z;
lastChange = "2017-10-08 01:51:36 +0000";
layers = (
{
anchors = (
{
name = bottom;
position = "{257, 0}";
},
{
name = top;
position = "{257, 685}";
}
);
layerId = "44A3F285-AC1C-4A7F-B2BD-0C498DBF5AFB";
paths = (
{
closed = 1;
nodes = (
"377 610 LINE",
"30 58 LINE",
"30 0 LINE",
"494 0 LINE",
"481 76 LINE",
"140 76 LINE",
"484 628 LINE",
"484 685 LINE",
"61 685 LINE",
"61 610 LINE"
);
}
);
width = 519;
},
{
layerId = "2F5B831B-86AF-41A9-958D-3871EE4B7007";
paths = (
{
closed = 1;
nodes = (
"274 541 LINE",
"5 132 LINE",
"5 0 LINE",
"507 0 LINE",
"493 150 LINE",
"226 150 LINE",
"491 559 LINE",
"491 692 LINE",
"27 692 LINE",
"27 541 LINE"
);
}
);
width = 512;
}
);
unicode = 005A;
},
{
glyphname = a;
lastChange = "2018-09-18 16:40:11 +0000";
layers = (
{
anchors = (
{
name = bottom;
position = "{255, 0}";
},
{
name = ogonek;
position = "{417, 0}";
},
{
name = top;
position = "{228, 486}";
}
);
layerId = "44A3F285-AC1C-4A7F-B2BD-0C498DBF5AFB";
paths = (
{
closed = 1;
nodes = (
"326 -12 OFFCURVE",
"373 128 OFFCURVE",
"397 248 CURVE",
"360 273 LINE",
"342 183 OFFCURVE",
"322 67 OFFCURVE",
"219 67 CURVE SMOOTH",
"160 67 OFFCURVE",
"138 111 OFFCURVE",
"138 178 CURVE SMOOTH",
"138 303 OFFCURVE",
"182 450 OFFCURVE",
"315 450 CURVE SMOOTH",
"343 450 OFFCURVE",
"369 434 OFFCURVE",
"397 417 CURVE",
"487 457 LINE",
"431 498 OFFCURVE",
"374 512 OFFCURVE",
"322 512 CURVE SMOOTH",
"120 512 OFFCURVE",
"39 346 OFFCURVE",
"39 180 CURVE SMOOTH",
"39 63 OFFCURVE",
"99 -12 OFFCURVE",
"195 -12 CURVE SMOOTH"
);
},
{
closed = 1;
nodes = (
"435 -12 OFFCURVE",
"461 -5 OFFCURVE",
"487 9 CURVE",
"471 79 LINE",
"459 71 OFFCURVE",
"449 66 OFFCURVE",
"434 66 CURVE SMOOTH",
"413 66 OFFCURVE",
"407 78 OFFCURVE",
"412 102 CURVE SMOOTH",
"487 457 LINE",
"397 457 LINE",
"329 119 LINE SMOOTH",
"314 46 OFFCURVE",
"338 -12 OFFCURVE",
"410 -12 CURVE SMOOTH"
);
}
);
width = 505;
},
{
annotations = (
{
position = "{123.65, 103.185}";
type = Minus;
},
{
position = "{123.65, 74.853}";
type = Minus;
}
);
layerId = "2F5B831B-86AF-41A9-958D-3871EE4B7007";
paths = (
{
closed = 1;
nodes = (
"86 504 OFFCURVE",
"144 524 OFFCURVE",
"224 524 CURVE",
"364 524 OFFCURVE",
"458 466 OFFCURVE",
"458 329 CURVE SMOOTH",
"458 127 LINE SMOOTH",
"458 113 OFFCURVE",
"465 107 OFFCURVE",
"476 107 CURVE SMOOTH",
"482 107 OFFCURVE",
"487 109 OFFCURVE",
"494 114 CURVE",
"514 6 LINE",
"481 -9 OFFCURVE",
"448 -18 OFFCURVE",
"411 -18 CURVE SMOOTH",
"339 -18 OFFCURVE",
"284 16 OFFCURVE",
"284 96 CURVE",
"271 146 LINE",
"271 330 LINE SMOOTH",
"271 377 OFFCURVE",
"248 399 OFFCURVE",
"197 399 CURVE SMOOTH",
"149 399 OFFCURVE",
"109 379 OFFCURVE",
"80 358 CURVE",
"31 470 LINE"
);
},
{
closed = 1;
nodes = (
"280 243 LINE",
"240 238 LINE SMOOTH",
"204 233 OFFCURVE",
"187 209 OFFCURVE",
"187 186 CURVE SMOOTH",
"187 165 OFFCURVE",
"201 151 OFFCURVE",
"221 151 CURVE SMOOTH",
"243 151 OFFCURVE",
"271 168 OFFCURVE",
"271 212 CURVE",
"300 174 LINE",
"300 32 OFFCURVE",
"243 -18 OFFCURVE",
"160 -18 CURVE SMOOTH",
"59 -18 OFFCURVE",
"8 58 OFFCURVE",
"8 147 CURVE SMOOTH",
"8 250 OFFCURVE",
"76 313 OFFCURVE",
"180 332 CURVE SMOOTH",
"280 350 LINE"
);
}
);
width = 514;
}
);
unicode = 0061;
},
{
glyphname = b;
lastChange = "2017-10-11 03:55:00 +0000";
layers = (
{
anchors = (
{
name = bottom;
position = "{281, 0}";
},
{
name = top;
position = "{281, 486}";
}
);
layerId = "44A3F285-AC1C-4A7F-B2BD-0C498DBF5AFB";
paths = (
{
closed = 1;
nodes = (
"192 257 LINE",
"192 380 OFFCURVE",
"226 446 OFFCURVE",
"300 446 CURVE SMOOTH",
"380 446 OFFCURVE",
"409 369 OFFCURVE",
"409 251 CURVE SMOOTH",
"409 134 OFFCURVE",
"380 56 OFFCURVE",
"300 56 CURVE SMOOTH",
"226 56 OFFCURVE",
"192 122 OFFCURVE",
"192 245 CURVE",
"156 200 LINE",
"156 99 OFFCURVE",
"196 -10 OFFCURVE",
"315 -10 CURVE SMOOTH",
"422 -10 OFFCURVE",
"503 77 OFFCURVE",
"503 251 CURVE SMOOTH",
"503 425 OFFCURVE",
"427 512 OFFCURVE",
"313 512 CURVE SMOOTH",
"198 512 OFFCURVE",
"156 399 OFFCURVE",
"156 292 CURVE"
);
},
{
closed = 1;
nodes = (
"187 30 OFFCURVE",
"188 57 OFFCURVE",
"188 89 CURVE",
"192 107 LINE",
"192 736 LINE",
"102 724 LINE",
"102 90 LINE",
"102 60 OFFCURVE",
"100 31 OFFCURVE",
"95 0 CURVE",
"182 0 LINE"
);
}
);
width = 561;
},
{
layerId = "2F5B831B-86AF-41A9-958D-3871EE4B7007";
paths = (
{
closed = 1;
nodes = (
"242 257 LINE",
"242 337 OFFCURVE",
"263 356 OFFCURVE",
"292 356 CURVE SMOOTH",
"316 356 OFFCURVE",
"344 331 OFFCURVE",
"344 251 CURVE SMOOTH",
"344 171 OFFCURVE",
"316 146 OFFCURVE",
"292 146 CURVE SMOOTH",
"263 146 OFFCURVE",
"242 165 OFFCURVE",
"242 245 CURVE",
"206 210 LINE",
"206 100 OFFCURVE",
"249 -18 OFFCURVE",
"368 -18 CURVE SMOOTH",
"472 -18 OFFCURVE",
"547 77 OFFCURVE",
"547 251 CURVE SMOOTH",
"547 425 OFFCURVE",
"477 524 OFFCURVE",
"363 524 CURVE SMOOTH",
"239 524 OFFCURVE",
"206 402 OFFCURVE",
"206 292 CURVE"
);
},
{
closed = 1;
nodes = (
"237 30 OFFCURVE",
"238 57 OFFCURVE",
"238 89 CURVE",
"242 107 LINE",
"242 734 LINE",
"52 722 LINE",
"52 90 LINE",
"52 60 OFFCURVE",
"50 31 OFFCURVE",
"45 0 CURVE",
"232 0 LINE"
);
}
);
width = 574;
}
);
leftMetricsKey = n;
rightMetricsKey = o;
unicode = 0062;
},
{
glyphname = c;
lastChange = "2017-10-11 03:55:00 +0000";
layers = (
{
anchors = (
{
name = bottom;
position = "{220, 1}";
},
{
name = top;
position = "{217, 486}";
}
);
background = {
paths = (
{
closed = 0;
nodes = (
"375 24 LINE"
);
},
{
closed = 0;
nodes = (
"324 77 LINE"
);
}
);
};
layerId = "44A3F285-AC1C-4A7F-B2BD-0C498DBF5AFB";
paths = (
{
closed = 1;
nodes = (
"362 492 OFFCURVE",
"315 512 OFFCURVE",
"266 512 CURVE SMOOTH",
"138 512 OFFCURVE",
"57 425 OFFCURVE",
"57 251 CURVE SMOOTH",
"57 77 OFFCURVE",
"138 -10 OFFCURVE",
"266 -10 CURVE SMOOTH",
"312 -10 OFFCURVE",
"362 7 OFFCURVE",
"395 31 CURVE",
"367 87 LINE",
"332 65 OFFCURVE",
"318 57 OFFCURVE",
"266 57 CURVE SMOOTH",
"184 57 OFFCURVE",
"152 124 OFFCURVE",
"152 251 CURVE SMOOTH",
"152 379 OFFCURVE",
"185 445 OFFCURVE",
"266 445 CURVE SMOOTH",
"312 445 OFFCURVE",
"333 436 OFFCURVE",
"367 413 CURVE",
"395 469 LINE"
);
}
);
width = 445;
},
{
layerId = "2F5B831B-86AF-41A9-958D-3871EE4B7007";
paths = (
{
closed = 1;
nodes = (
"400 498 OFFCURVE",
"348 524 OFFCURVE",
"278 524 CURVE SMOOTH",
"142 524 OFFCURVE",
"27 448 OFFCURVE",
"27 252 CURVE SMOOTH",
"27 57 OFFCURVE",
"142 -18 OFFCURVE",
"278 -18 CURVE SMOOTH",
"347 -18 OFFCURVE",
"401 6 OFFCURVE",
"447 33 CURVE",
"402 140 LINE",
"373 117 OFFCURVE",
"344 111 OFFCURVE",
"321 111 CURVE SMOOTH",
"261 111 OFFCURVE",
"229 152 OFFCURVE",
"229 252 CURVE SMOOTH",
"229 365 OFFCURVE",
"261 401 OFFCURVE",
"317 401 CURVE SMOOTH",
"342 401 OFFCURVE",
"370 394 OFFCURVE",
"396 371 CURVE",
"441 472 LINE"
);
}
);
width = 455;
}
);
leftMetricsKey = o;
unicode = 0063;
},
{
glyphname = d;
lastChange = "2017-10-11 03:55:00 +0000";
layers = (
{
anchors = (
{
name = bottom;
position = "{275, 0}";
},
{
name = center;
position = "{275, 243}";
},
{
name = top;
position = "{275, 486}";
},
{
name = topright;
position = "{510, 486}";
}
);
layerId = "44A3F285-AC1C-4A7F-B2BD-0C498DBF5AFB";
paths = (
{
closed = 1;
nodes = (
"404 399 OFFCURVE",
"362 512 OFFCURVE",
"247 512 CURVE SMOOTH",
"133 512 OFFCURVE",
"57 425 OFFCURVE",
"57 251 CURVE SMOOTH",
"57 77 OFFCURVE",
"133 -10 OFFCURVE",
"237 -10 CURVE SMOOTH",
"362 -10 OFFCURVE",
"404 104 OFFCURVE",
"404 210 CURVE",
"368 245 LINE",
"368 122 OFFCURVE",
"334 56 OFFCURVE",
"260 56 CURVE SMOOTH",
"180 56 OFFCURVE",
"151 134 OFFCURVE",
"151 251 CURVE SMOOTH",
"151 369 OFFCURVE",
"180 446 OFFCURVE",
"260 446 CURVE SMOOTH",
"334 446 OFFCURVE",
"368 380 OFFCURVE",
"368 257 CURVE",
"404 292 LINE"
);
},
{
closed = 1;
nodes = (
"465 0 LINE",
"460 31 OFFCURVE",
"458 60 OFFCURVE",
"458 90 CURVE",
"458 736 LINE",
"368 724 LINE",
"368 107 LINE",
"372 89 LINE",
"372 57 OFFCURVE",
"373 30 OFFCURVE",
"378 0 CURVE"
);
}
);
width = 545;
},
{
layerId = "2F5B831B-86AF-41A9-958D-3871EE4B7007";
paths = (
{
closed = 1;
nodes = (
"367 407 OFFCURVE",
"336 524 OFFCURVE",
"212 524 CURVE SMOOTH",
"107 524 OFFCURVE",
"27 434 OFFCURVE",
"27 253 CURVE SMOOTH",
"27 72 OFFCURVE",
"107 -18 OFFCURVE",
"212 -18 CURVE SMOOTH",
"331 -18 OFFCURVE",
"367 100 OFFCURVE",
"367 210 CURVE",
"333 250 LINE",
"333 170 OFFCURVE",
"303 147 OFFCURVE",
"279 147 CURVE SMOOTH",
"250 147 OFFCURVE",
"230 173 OFFCURVE",
"230 253 CURVE SMOOTH",
"230 333 OFFCURVE",
"250 359 OFFCURVE",
"279 359 CURVE SMOOTH",
"303 359 OFFCURVE",
"333 336 OFFCURVE",
"333 256 CURVE",
"367 296 LINE"
);
},
{
closed = 1;
nodes = (
"530 0 LINE",
"525 31 OFFCURVE",
"523 60 OFFCURVE",
"523 90 CURVE",
"523 734 LINE",
"333 722 LINE",
"333 107 LINE",
"337 89 LINE",
"337 57 OFFCURVE",
"338 30 OFFCURVE",
"343 0 CURVE"
);
}
);
width = 565;
}
);
leftMetricsKey = o;
unicode = 0064;
},
{
glyphname = e;
lastChange = "2017-10-13 04:46:04 +0000";
layers = (
{
anchors = (
{
name = bottom;
position = "{255, 0}";
},
{
name = ogonek;
position = "{448, 10}";
},
{
name = top;
position = "{262, 500}";
}
);
layerId = "44A3F285-AC1C-4A7F-B2BD-0C498DBF5AFB";
paths = (
{
closed = 1;
nodes = (
"341 445 OFFCURVE",
"260 445 CURVE SMOOTH",
"182 445 OFFCURVE",
"152 379 OFFCURVE",
"152 251 CURVE SMOOTH",
"152 124 OFFCURVE",
"200 58 OFFCURVE",
"290 58 CURVE SMOOTH",
"329 58 OFFCURVE",
"378 70 OFFCURVE",
"412 88 CURVE",
"439 31 LINE",
"406 7 OFFCURVE",
"338 -10 OFFCURVE",
"281 -10 CURVE SMOOTH",
"154 -10 OFFCURVE",
"57 77 OFFCURVE",
"57 251 CURVE SMOOTH",
"57 425 OFFCURVE",
"132 512 OFFCURVE",
"263 512 CURVE SMOOTH",
"377 512 OFFCURVE",
"445 446 OFFCURVE",
"445 280 CURVE SMOOTH",
"445 259 OFFCURVE",
"444 246 OFFCURVE",
"443 230 CURVE",
"123 230 LINE",
"123 290 LINE",
"362 290 LINE",
"362 376 OFFCURVE"
);
}
);
width = 507;
},
{
layerId = "2F5B831B-86AF-41A9-958D-3871EE4B7007";
paths = (
{
closed = 1;
nodes = (
"309 366 OFFCURVE",
"302 403 OFFCURVE",
"265 403 CURVE SMOOTH",
"229 403 OFFCURVE",
"221 372 OFFCURVE",
"221 253 CURVE SMOOTH",
"221 145 OFFCURVE",
"244 110 OFFCURVE",
"323 110 CURVE SMOOTH",
"371 110 OFFCURVE",
"404 123 OFFCURVE",
"440 144 CURVE",
"482 34 LINE",
"432 3 OFFCURVE",
"362 -18 OFFCURVE",
"288 -18 CURVE SMOOTH",
"140 -18 OFFCURVE",
"27 62 OFFCURVE",
"27 253 CURVE SMOOTH",
"27 439 OFFCURVE",
"128 524 OFFCURVE",
"274 524 CURVE SMOOTH",
"403 524 OFFCURVE",
"495 439 OFFCURVE",
"495 250 CURVE SMOOTH",
"495 232 OFFCURVE",
"494 219 OFFCURVE",
"493 202 CURVE",
"129 202 LINE",
"129 313 LINE",
"309 313 LINE"
);
}
);
width = 511;
}
);
leftMetricsKey = o;
unicode = 0065;
},
{
glyphname = f;
lastChange = "2017-10-07 17:48:31 +0000";
layers = (
{
anchors = (
{
name = bottom;
position = "{197, 0}";
},
{
name = top;
position = "{197, 486}";
}
);
layerId = "44A3F285-AC1C-4A7F-B2BD-0C498DBF5AFB";
paths = (
{
closed = 1;
nodes = (
"361 720 OFFCURVE",
"329 736 OFFCURVE",
"277 736 CURVE SMOOTH",
"157 736 OFFCURVE",
"119 651 OFFCURVE",
"119 551 CURVE",
"119 0 LINE",
"209 0 LINE",
"209 462 LINE",
"208 482 LINE",
"208 556 LINE",
"208 627 OFFCURVE",
"220 672 OFFCURVE",
"283 672 CURVE SMOOTH",
"311 672 OFFCURVE",
"338 663 OFFCURVE",
"368 641 CURVE",
"394 694 LINE"
);
},
{
closed = 1;
nodes = (
"40 440 LINE",
"337 440 LINE",
"337 500 LINE",
"40 500 LINE"
);
}
);
width = 359;
},
{
layerId = "2F5B831B-86AF-41A9-958D-3871EE4B7007";
paths = (
{
closed = 1;
nodes = (
"371 717 OFFCURVE",
"320 736 OFFCURVE",
"259 736 CURVE SMOOTH",
"127 736 OFFCURVE",
"64 649 OFFCURVE",
"64 521 CURVE SMOOTH",
"64 0 LINE",
"254 0 LINE",
"254 528 LINE SMOOTH",
"254 579 OFFCURVE",
"266 603 OFFCURVE",
"306 603 CURVE SMOOTH",
"326 603 OFFCURVE",
"346 597 OFFCURVE",
"365 581 CURVE",
"404 694 LINE"
);
},
{
closed = 1;
nodes = (
"15 396 LINE",
"352 396 LINE",
"352 506 LINE",
"15 506 LINE"
);
}
);
width = 364;
}
);
unicode = 0066;
},
{
glyphname = g;
lastChange = "2017-10-09 05:30:31 +0000";
layers = (
{
anchors = (
{
name = bottom;
position = "{247, 0}";
},
{
name = top;
position = "{247, 486}";
}
);
annotations = (
{
position = "{228.207, -178.689}";
type = Plus;
},
{
position = "{421.051, -45.984}";
type = Plus;
},
{
position = "{234.897, 54.516}";
type = Plus;
}
);
layerId = "44A3F285-AC1C-4A7F-B2BD-0C498DBF5AFB";
paths = (
{
closed = 1;
nodes = (
"396 -216 OFFCURVE",
"458 -126 OFFCURVE",
"458 -38 CURVE SMOOTH",
"458 45 OFFCURVE",
"405 99 OFFCURVE",
"303 99 CURVE SMOOTH",
"209 99 LINE SMOOTH",
"168 99 OFFCURVE",
"152 114 OFFCURVE",
"152 134 CURVE SMOOTH",
"152 156 OFFCURVE",
"172 171 OFFCURVE",
"215 174 CURVE",
"151 202 LINE",
"103 193 OFFCURVE",
"70 159 OFFCURVE",
"70 114 CURVE SMOOTH",
"70 60 OFFCURVE",
"114 24 OFFCURVE",
"181 24 CURVE SMOOTH",
"275 24 LINE SMOOTH",
"346 24 OFFCURVE",
"374 -2 OFFCURVE",
"374 -44 CURVE SMOOTH",
"374 -94 OFFCURVE",
"335 -142 OFFCURVE",
"239 -142 CURVE SMOOTH",
"157 -142 OFFCURVE",
"114 -105 OFFCURVE",
"114 -50 CURVE SMOOTH",
"114 -10 OFFCURVE",
"140 24 OFFCURVE",
"198 24 CURVE",
"113 49 LINE",
"70 33 OFFCURVE",
"32 -5 OFFCURVE",
"32 -68 CURVE SMOOTH",
"32 -146 OFFCURVE",
"90 -216 OFFCURVE",
"235 -216 CURVE SMOOTH"
);
},
{
closed = 1;
nodes = (
"338 172 OFFCURVE",
"421 226 OFFCURVE",
"421 345 CURVE SMOOTH",
"421 464 OFFCURVE",
"338 512 OFFCURVE",
"244 512 CURVE SMOOTH",
"150 512 OFFCURVE",
"66 464 OFFCURVE",
"66 345 CURVE SMOOTH",
"66 226 OFFCURVE",
"150 172 OFFCURVE",
"244 172 CURVE SMOOTH"
);
},
{
closed = 1;
nodes = (
"191 228 OFFCURVE",
"158 265 OFFCURVE",
"158 340 CURVE SMOOTH",
"158 415 OFFCURVE",
"191 455 OFFCURVE",
"244 455 CURVE SMOOTH",
"297 455 OFFCURVE",
"329 415 OFFCURVE",
"329 340 CURVE SMOOTH",
"329 265 OFFCURVE",
"297 228 OFFCURVE",
"244 228 CURVE SMOOTH"
);
},
{
closed = 1;
nodes = (
"391 457 OFFCURVE",
"453 464 OFFCURVE",
"484 475 CURVE",
"462 546 LINE",
"424 528 OFFCURVE",
"372 508 OFFCURVE",
"326 497 CURVE",
"356 457 LINE"
);
}
);
width = 504;
},
{
layerId = "2F5B831B-86AF-41A9-958D-3871EE4B7007";
paths = (
{
closed = 1;
nodes = (
"429 -228 OFFCURVE",
"490 -130 OFFCURVE",
"490 -23 CURVE SMOOTH",
"490 57 OFFCURVE",
"433 137 OFFCURVE",
"328 137 CURVE SMOOTH",
"222 137 LINE SMOOTH",
"192 137 OFFCURVE",
"181 142 OFFCURVE",
"181 154 CURVE SMOOTH",
"181 168 OFFCURVE",
"194 174 OFFCURVE",
"222 174 CURVE",
"99 213 LINE",
"53 190 OFFCURVE",
"25 154 OFFCURVE",
"25 102 CURVE SMOOTH",
"25 21 OFFCURVE",
"90 -14 OFFCURVE",
"177 -14 CURVE SMOOTH",
"271 -14 LINE SMOOTH",
"304 -14 OFFCURVE",
"319 -25 OFFCURVE",
"319 -43 CURVE SMOOTH",
"319 -67 OFFCURVE",
"293 -83 OFFCURVE",
"236 -83 CURVE SMOOTH",
"174 -83 OFFCURVE",
"152 -67 OFFCURVE",
"152 -44 CURVE SMOOTH",
"152 -28 OFFCURVE",
"162 -18 OFFCURVE",
"180 -13 CURVE",
"62 24 LINE",
"40 11 OFFCURVE",
"0 -23 OFFCURVE",
"0 -86 CURVE SMOOTH",
"0 -181 OFFCURVE",
"86 -228 OFFCURVE",
"235 -228 CURVE SMOOTH"
);
},
{
closed = 1;
nodes = (
"367 173 OFFCURVE",
"444 224 OFFCURVE",
"444 349 CURVE",
"444 473 OFFCURVE",
"357 524 OFFCURVE",
"247 524 CURVE SMOOTH",
"126 524 OFFCURVE",
"38 474 OFFCURVE",
"38 350 CURVE SMOOTH",
"38 225 OFFCURVE",
"126 173 OFFCURVE",
"247 173 CURVE SMOOTH"
);
},
{
closed = 1;
nodes = (
"220 277 OFFCURVE",
"210 302 OFFCURVE",
"210 353 CURVE SMOOTH",
"210 400 OFFCURVE",
"220 426 OFFCURVE",
"246 426 CURVE SMOOTH",
"273 426 OFFCURVE",
"282 400 OFFCURVE",
"282 353 CURVE SMOOTH",
"282 302 OFFCURVE",
"273 277 OFFCURVE",
"246 277 CURVE SMOOTH"
);
},
{
closed = 1;
nodes = (
"411 458 OFFCURVE",
"461 465 OFFCURVE",
"496 473 CURVE",
"463 577 LINE",
"415 548 OFFCURVE",
"380 529 OFFCURVE",
"314 516 CURVE",
"365 458 LINE"
);
}
);
width = 490;
}
);
unicode = 0067;
},
{
glyphname = h;
lastChange = "2017-10-11 03:55:00 +0000";
layers = (
{
anchors = (
{
name = bottom;
position = "{281, 0}";
},
{
name = center;
position = "{281, 243}";
},
{
name = top;
position = "{281, 486}";
}
);
layerId = "44A3F285-AC1C-4A7F-B2BD-0C498DBF5AFB";
paths = (
{
closed = 1;
nodes = (
"421 512 OFFCURVE",
"476 449 OFFCURVE",
"476 339 CURVE",
"476 0 LINE",
"386 0 LINE",
"386 335 LINE",
"386 409 OFFCURVE",
"360 442 OFFCURVE",
"304 442 CURVE",
"231 442 OFFCURVE",
"190 388 OFFCURVE",
"189 273 CURVE",
"152 297 LINE",
"152 432 OFFCURVE",
"224 512 OFFCURVE",
"323 512 CURVE"
);
},
{
closed = 1;
nodes = (
"184 736 LINE",
"187 708 OFFCURVE",
"188 679 OFFCURVE",
"188 647 CURVE",
"188 393 LINE",
"189 379 LINE",
"189 0 LINE",
"99 0 LINE",
"99 646 LINE",
"99 676 OFFCURVE",
"98 698 OFFCURVE",
"95 724 CURVE"
);
}
);
width = 566;
},
{
layerId = "2F5B831B-86AF-41A9-958D-3871EE4B7007";
paths = (
{
closed = 1;
nodes = (
"228 734 LINE",
"231 704 OFFCURVE",
"232 673 OFFCURVE",
"232 640 CURVE",
"232 416 LINE",
"239 399 LINE",
"239 0 LINE",
"49 0 LINE",
"49 639 LINE",
"49 670 OFFCURVE",
"48 694 OFFCURVE",
"45 720 CURVE"
);
},
{
closed = 1;
nodes = (
"443 524 OFFCURVE",
"514 460 OFFCURVE",
"514 347 CURVE SMOOTH",
"514 0 LINE",
"324 0 LINE",
"324 297 LINE SMOOTH",
"324 370 OFFCURVE",
"312 394 OFFCURVE",
"280 394 CURVE",
"249 394 OFFCURVE",
"239 371 OFFCURVE",
"239 285 CURVE",
"207 300 LINE",
"207 460 OFFCURVE",
"257 524 OFFCURVE",
"353 524 CURVE"
);
}
);
width = 556;
}
);
leftMetricsKey = n;
rightMetricsKey = n;
unicode = 0068;
},
{
glyphname = idotless;
lastChange = "2017-10-11 03:06:38 +0000";
layers = (
{
anchors = (
{
name = bottom;
position = "{142, 0}";
},
{
name = top;
position = "{139, 500}";
}
);
layerId = "44A3F285-AC1C-4A7F-B2BD-0C498DBF5AFB";
paths = (
{
closed = 1;
nodes = (
"95 0 LINE",
"185 0 LINE",
"185 500 LINE",
"95 500 LINE"
);
}
);
width = 280;
},
{
anchors = (
{
name = top;
position = "{139, 506}";
}
);
layerId = "2F5B831B-86AF-41A9-958D-3871EE4B7007";
paths = (
{
closed = 1;
nodes = (
"235 0 LINE",
"235 506 LINE",
"45 506 LINE",
"45 0 LINE"
);
}
);
width = 280;
}
);
leftMetricsKey = n;
rightMetricsKey = "=|n";
unicode = 0131;
},
{
glyphname = jdotless;
lastChange = "2017-10-07 19:03:46 +0000";
layers = (
{
anchors = (
{
name = top;
position = "{135, 500}";
}
);
layerId = "44A3F285-AC1C-4A7F-B2BD-0C498DBF5AFB";
paths = (
{
closed = 1;
nodes = (
"21 -216 LINE",
"142 -216 OFFCURVE",
"180 -143 OFFCURVE",
"180 -31 CURVE",
"180 500 LINE",
"90 500 LINE",
"90 -36 LINE",
"90 -107 OFFCURVE",
"84 -149 OFFCURVE",
"15 -149 CURVE"
);
}
);
width = 270;
},
{
anchors = (
{
name = top;
position = "{143, 506}";
}
);
layerId = "2F5B831B-86AF-41A9-958D-3871EE4B7007";
paths = (
{
closed = 1;
nodes = (
"-1 -210 LINE",
"140 -205 OFFCURVE",
"238 -131 OFFCURVE",
"238 15 CURVE SMOOTH",
"238 506 LINE",
"48 506 LINE",
"48 20 LINE SMOOTH",
"48 -35 OFFCURVE",
"29 -72 OFFCURVE",
"-15 -77 CURVE"
);
}
);
width = 283;
}
);
unicode = 0237;
},
{
glyphname = k;
lastChange = "2017-10-13 05:38:44 +0000";
layers = (
{
anchors = (
{
name = bottom;
position = "{246, 0}";
},
{
name = top;
position = "{246, 486}";
}
);
layerId = "44A3F285-AC1C-4A7F-B2BD-0C498DBF5AFB";
paths = (
{
closed = 1;
nodes = (
"479 0 LINE",
"280 286 LINE",
"452 500 LINE",
"348 500 LINE",
"188 292 LINE",
"188 274 LINE",
"367 0 LINE"
);
},
{
closed = 1;
nodes = (
"189 0 LINE",
"189 647 LINE",
"189 679 OFFCURVE",
"188 708 OFFCURVE",
"185 736 CURVE",
"95 724 LINE",
"98 698 OFFCURVE",
"99 676 OFFCURVE",
"99 646 CURVE",
"99 0 LINE"
);
}
);
width = 500;
},
{
layerId = "2F5B831B-86AF-41A9-958D-3871EE4B7007";
paths = (
{
closed = 1;
nodes = (
"567 0 LINE",
"401 297 LINE",
"539 506 LINE",
"361 506 LINE",
"238 292 LINE",
"238 277 LINE",
"347 0 LINE"
);
},
{
closed = 1;
nodes = (
"239 0 LINE",
"239 645 LINE",
"239 677 OFFCURVE",
"238 706 OFFCURVE",
"235 734 CURVE",
"45 722 LINE",
"48 696 OFFCURVE",
"49 674 OFFCURVE",
"49 644 CURVE",
"49 0 LINE"
);
}
);
width = 560;
}
);
leftMetricsKey = n;
unicode = 006B;
},
{
glyphname = l;
lastChange = "2017-10-07 20:29:38 +0000";
layers = (
{
anchors = (
{
name = bottom;
position = "{175, 0}";
},
{
name = center;
position = "{175, 243}";
},
{
name = top;
position = "{175, 486}";
},
{
name = topright;
position = "{306, 486}";
}
);
annotations = (
{
position = "{213.292, 29.671}";
type = Minus;
}
);
layerId = "44A3F285-AC1C-4A7F-B2BD-0C498DBF5AFB";
paths = (
{
closed = 1;
nodes = (
"230 -11 OFFCURVE",
"250 -3 OFFCURVE",
"272 8 CURVE",
"262 75 LINE",
"247 67 OFFCURVE",
"234 64 OFFCURVE",
"222 64 CURVE SMOOTH",
"203 64 OFFCURVE",
"188 72 OFFCURVE",
"188 100 CURVE SMOOTH",
"188 647 LINE",
"188 679 OFFCURVE",
"186 708 OFFCURVE",
"182 736 CURVE",
"95 724 LINE",
"98 698 OFFCURVE",
"99 676 OFFCURVE",
"99 646 CURVE",
"99 104 LINE SMOOTH",
"99 27 OFFCURVE",
"138 -11 OFFCURVE",
"201 -11 CURVE SMOOTH"
);
}
);
width = 329;
},
{
layerId = "2F5B831B-86AF-41A9-958D-3871EE4B7007";
paths = (
{
closed = 1;
nodes = (
"238 -11 OFFCURVE",
"274 -5 OFFCURVE",
"307 8 CURVE",
"297 144 LINE",
"281 137 OFFCURVE",
"274 135 OFFCURVE",
"265 135 CURVE SMOOTH",
"245 135 OFFCURVE",
"239 145 OFFCURVE",
"239 176 CURVE SMOOTH",
"239 645 LINE",
"239 677 OFFCURVE",
"237 706 OFFCURVE",
"233 734 CURVE",
"45 722 LINE",
"48 696 OFFCURVE",
"49 674 OFFCURVE",
"49 644 CURVE",
"49 153 LINE SMOOTH",
"49 17 OFFCURVE",
"128 -11 OFFCURVE",
"203 -11 CURVE SMOOTH"
);
}
);
width = 317;
}
);
leftMetricsKey = n;
unicode = 006C;
},
{
glyphname = m;
lastChange = "2017-10-11 03:55:00 +0000";
layers = (
{
anchors = (
{
name = bottom;
position = "{396, 0}";
},
{
name = top;
position = "{396, 486}";
}
);
layerId = "44A3F285-AC1C-4A7F-B2BD-0C498DBF5AFB";
paths = (
{
closed = 1;
nodes = (
"178 500 LINE",
"181 471 OFFCURVE",
"182 441 OFFCURVE",
"182 408 CURVE",
"189 390 LINE",
"189 0 LINE",
"99 0 LINE",
"99 407 LINE",
"99 438 OFFCURVE",
"98 461 OFFCURVE",
"95 487 CURVE"
);
},
{
closed = 1;
nodes = (
"393 512 OFFCURVE",
"452 448 OFFCURVE",
"452 339 CURVE SMOOTH",
"452 0 LINE",
"362 0 LINE",
"362 335 LINE SMOOTH",
"362 409 OFFCURVE",
"333 444 OFFCURVE",
"283 444 CURVE SMOOTH",
"213 444 OFFCURVE",
"189 377 OFFCURVE",
"189 244 CURVE",
"154 296 LINE",
"154 418 OFFCURVE",
"200 512 OFFCURVE",
"306 512 CURVE SMOOTH"
);
},
{
closed = 1;
nodes = (
"662 512 OFFCURVE",
"720 448 OFFCURVE",
"720 339 CURVE SMOOTH",
"720 0 LINE",
"630 0 LINE",
"630 335 LINE SMOOTH",
"630 409 OFFCURVE",
"601 444 OFFCURVE",
"550 444 CURVE SMOOTH",
"480 444 OFFCURVE",
"452 377 OFFCURVE",
"452 244 CURVE",
"414 299 LINE",
"414 433 OFFCURVE",
"475 512 OFFCURVE",
"573 512 CURVE SMOOTH"
);
}
);
width = 810;
},
{
layerId = "2F5B831B-86AF-41A9-958D-3871EE4B7007";
paths = (
{
closed = 1;
nodes = (
"228 512 LINE",
"231 482 OFFCURVE",
"232 451 OFFCURVE",
"232 418 CURVE",
"239 399 LINE",
"239 0 LINE",
"49 0 LINE",
"49 417 LINE",
"49 448 OFFCURVE",
"48 472 OFFCURVE",
"45 498 CURVE"
);
},
{
closed = 1;
nodes = (
"435 524 OFFCURVE",
"492 459 OFFCURVE",
"492 347 CURVE",
"492 0 LINE",
"307 0 LINE",
"307 293 LINE",
"307 339 OFFCURVE",
"302 374 OFFCURVE",
"274 374 CURVE",
"246 374 OFFCURVE",
"239 339 OFFCURVE",
"239 259 CURVE",
"197 249 LINE",
"197 421 OFFCURVE",
"240 524 OFFCURVE",
"345 524 CURVE"
);
},
{
closed = 1;
nodes = (
"686 524 OFFCURVE",
"750 459 OFFCURVE",
"750 347 CURVE",
"750 0 LINE",
"560 0 LINE",
"560 293 LINE",
"560 339 OFFCURVE",
"553 374 OFFCURVE",
"525 374 CURVE",
"497 374 OFFCURVE",
"492 340 OFFCURVE",
"492 259 CURVE",
"440 249 LINE",
"440 421 OFFCURVE",
"498 524 OFFCURVE",
"596 524 CURVE"
);
}
);
width = 792;
}
);
leftMetricsKey = n;
rightMetricsKey = n;
unicode = 006D;
},
{
glyphname = n;
lastChange = "2017-10-11 03:54:05 +0000";
layers = (
{
anchors = (
{
name = bottom;
position = "{277, 0}";
},
{
name = top;
position = "{277, 486}";
}
);
layerId = "44A3F285-AC1C-4A7F-B2BD-0C498DBF5AFB";
paths = (
{
closed = 1;
nodes = (
"178 500 LINE",
"181 471 OFFCURVE",
"182 441 OFFCURVE",
"182 408 CURVE",
"189 390 LINE",
"189 0 LINE",
"99 0 LINE",
"99 407 LINE",
"99 438 OFFCURVE",
"98 461 OFFCURVE",
"95 487 CURVE"
);
},
{
closed = 1;
nodes = (
"419 512 OFFCURVE",
"474 449 OFFCURVE",
"474 339 CURVE SMOOTH",
"474 0 LINE",
"384 0 LINE",
"384 335 LINE SMOOTH",
"384 409 OFFCURVE",
"352 444 OFFCURVE",
"299 444 CURVE SMOOTH",
"231 444 OFFCURVE",
"189 388 OFFCURVE",
"189 259 CURVE",
"157 283 LINE",
"157 432 OFFCURVE",
"213 512 OFFCURVE",
"320 512 CURVE"
);
}
);
width = 564;
},
{
layerId = "2F5B831B-86AF-41A9-958D-3871EE4B7007";
paths = (
{
closed = 1;
nodes = (
"514 0 LINE",
"514 347 LINE SMOOTH",
"514 460 OFFCURVE",
"443 524 OFFCURVE",
"353 524 CURVE",
"257 524 OFFCURVE",
"207 460 OFFCURVE",
"207 300 CURVE",
"239 285 LINE",
"239 371 OFFCURVE",
"249 394 OFFCURVE",
"280 394 CURVE",
"312 394 OFFCURVE",
"324 370 OFFCURVE",
"324 297 CURVE SMOOTH",
"324 0 LINE"
);
},
{
closed = 1;
nodes = (
"239 0 LINE",
"239 399 LINE",
"232 418 LINE",
"232 451 OFFCURVE",
"231 482 OFFCURVE",
"228 512 CURVE",
"45 498 LINE",
"48 472 OFFCURVE",
"49 448 OFFCURVE",
"49 417 CURVE",
"49 0 LINE"
);
}
);
width = 556;
}
);
unicode = 006E;
},
{
glyphname = o;
lastChange = "2017-10-11 03:53:47 +0000";
layers = (
{
anchors = (
{
name = bottom;
position = "{262, 0}";
},
{
name = center;
position = "{262, 243}";
},
{
name = ogonek;
position = "{461, 10}";
},
{
name = top;
position = "{262, 486}";
},
{
name = topright;
position = "{491, 486}";
}
);
layerId = "44A3F285-AC1C-4A7F-B2BD-0C498DBF5AFB";
paths = (
{
closed = 1;
nodes = (
"395 -10 OFFCURVE",
"477 77 OFFCURVE",
"477 251 CURVE SMOOTH",
"477 425 OFFCURVE",
"395 512 OFFCURVE",
"268 512 CURVE SMOOTH",
"140 512 OFFCURVE",
"57 425 OFFCURVE",
"57 251 CURVE SMOOTH",
"57 77 OFFCURVE",
"140 -10 OFFCURVE",
"268 -10 CURVE SMOOTH"
);
},
{
closed = 1;
nodes = (
"188 56 OFFCURVE",
"154 124 OFFCURVE",
"154 251 CURVE SMOOTH",
"154 379 OFFCURVE",
"188 446 OFFCURVE",
"268 446 CURVE SMOOTH",
"347 446 OFFCURVE",
"381 379 OFFCURVE",
"381 251 CURVE SMOOTH",
"381 124 OFFCURVE",
"347 56 OFFCURVE",
"268 56 CURVE SMOOTH"
);
}
);
width = 535;
},
{
layerId = "2F5B831B-86AF-41A9-958D-3871EE4B7007";
paths = (
{
closed = 1;
nodes = (
"439 -18 OFFCURVE",
"527 72 OFFCURVE",
"527 253 CURVE SMOOTH",
"527 434 OFFCURVE",
"439 524 OFFCURVE",
"278 524 CURVE SMOOTH",
"116 524 OFFCURVE",
"27 434 OFFCURVE",
"27 253 CURVE SMOOTH",
"27 72 OFFCURVE",
"116 -18 OFFCURVE",
"278 -18 CURVE SMOOTH"
);
},
{
closed = 1;
nodes = (
"244 101 OFFCURVE",
"229 141 OFFCURVE",
"229 253 CURVE SMOOTH",
"229 366 OFFCURVE",
"244 405 OFFCURVE",
"277 405 CURVE SMOOTH",
"309 405 OFFCURVE",
"325 366 OFFCURVE",
"325 253 CURVE SMOOTH",
"325 141 OFFCURVE",
"309 101 OFFCURVE",
"277 101 CURVE SMOOTH"
);
}
);
width = 554;
}
);
unicode = 006F;
},
{
glyphname = p;
lastChange = "2017-10-11 03:55:00 +0000";
layers = (
{
anchors = (
{
name = bottom;
position = "{276, 0}";
},
{
name = top;
position = "{276, 486}";
}
);
layerId = "44A3F285-AC1C-4A7F-B2BD-0C498DBF5AFB";
paths = (
{
closed = 1;
nodes = (
"423 -12 OFFCURVE",
"495 76 OFFCURVE",
"495 250 CURVE SMOOTH",
"495 424 OFFCURVE",
"423 512 OFFCURVE",
"314 512 CURVE SMOOTH",
"187 512 OFFCURVE",
"153 378 OFFCURVE",
"153 291 CURVE",
"189 256 LINE",
"189 380 OFFCURVE",
"224 446 OFFCURVE",
"296 446 CURVE SMOOTH",
"377 446 OFFCURVE",
"400 368 OFFCURVE",
"400 250 CURVE SMOOTH",
"400 131 OFFCURVE",
"371 54 OFFCURVE",
"296 54 CURVE SMOOTH",
"224 54 OFFCURVE",
"189 123 OFFCURVE",
"189 244 CURVE",
"153 209 LINE",
"153 101 OFFCURVE",
"194 -12 OFFCURVE",
"314 -12 CURVE SMOOTH"
);
},
{
closed = 1;
nodes = (
"189 -204 LINE",
"189 411 LINE",
"189 443 OFFCURVE",
"187 472 OFFCURVE",
"183 500 CURVE",
"95 488 LINE",
"98 462 OFFCURVE",
"99 440 OFFCURVE",
"99 410 CURVE",
"99 -204 LINE"
);
}
);
width = 553;
},
{
layerId = "2F5B831B-86AF-41A9-958D-3871EE4B7007";
paths = (
{
closed = 1;
nodes = (
"475 -18 OFFCURVE",
"549 78 OFFCURVE",
"549 256 CURVE SMOOTH",
"549 434 OFFCURVE",
"475 524 OFFCURVE",
"364 524 CURVE SMOOTH",
"234 524 OFFCURVE",
"197 397 OFFCURVE",
"197 288 CURVE",
"239 262 LINE",
"239 348 OFFCURVE",
"259 377 OFFCURVE",
"291 377 CURVE SMOOTH",
"323 377 OFFCURVE",
"347 336 OFFCURVE",
"347 256 CURVE SMOOTH",
"347 174 OFFCURVE",
"323 126 OFFCURVE",
"291 126 CURVE SMOOTH",
"259 126 OFFCURVE",
"239 166 OFFCURVE",
"239 250 CURVE",
"197 214 LINE",
"197 84 OFFCURVE",
"241 -18 OFFCURVE",
"364 -18 CURVE SMOOTH"
);
},
{
closed = 1;
nodes = (
"239 -208 LINE",
"239 421 LINE",
"239 453 OFFCURVE",
"237 483 OFFCURVE",
"233 512 CURVE",
"45 499 LINE",
"48 473 OFFCURVE",
"49 450 OFFCURVE",
"49 420 CURVE",
"49 -208 LINE"
);
}
);
width = 576;
}
);
leftMetricsKey = n;
rightMetricsKey = o;
unicode = 0070;
},
{
glyphname = q;
lastChange = "2017-10-11 03:55:00 +0000";
layers = (
{
anchors = (
{
name = bottom;
position = "{276, 0}";
},
{
name = top;
position = "{276, 486}";
}
);
layerId = "44A3F285-AC1C-4A7F-B2BD-0C498DBF5AFB";
paths = (
{
closed = 1;
nodes = (
"370 244 LINE",
"370 120 OFFCURVE",
"336 54 OFFCURVE",
"262 54 CURVE SMOOTH",
"181 54 OFFCURVE",
"152 131 OFFCURVE",
"152 250 CURVE SMOOTH",
"152 368 OFFCURVE",
"181 446 OFFCURVE",
"262 446 CURVE SMOOTH",
"336 446 OFFCURVE",
"370 380 OFFCURVE",
"370 256 CURVE",
"406 291 LINE",
"406 403 OFFCURVE",
"364 512 OFFCURVE",
"242 512 CURVE SMOOTH",
"134 512 OFFCURVE",
"57 424 OFFCURVE",
"57 250 CURVE SMOOTH",
"57 76 OFFCURVE",
"134 -12 OFFCURVE",
"247 -12 CURVE SMOOTH",
"364 -12 OFFCURVE",
"406 96 OFFCURVE",
"406 209 CURVE"
);
},
{
closed = 1;
nodes = (
"370 -216 LINE",
"460 -204 LINE",
"460 500 LINE",
"370 500 LINE"
);
}
);
width = 555;
},
{
layerId = "2F5B831B-86AF-41A9-958D-3871EE4B7007";
width = 782;
}
);
leftMetricsKey = o;
unicode = 0071;
},
{
glyphname = r;
lastChange = "2017-10-07 20:41:41 +0000";
layers = (
{
anchors = (
{
name = bottom;
position = "{204, 0}";
},
{
name = top;
position = "{204, 486}";
}
);
layerId = "44A3F285-AC1C-4A7F-B2BD-0C498DBF5AFB";
paths = (
{
closed = 1;
nodes = (
"189 380 OFFCURVE",
"211 429 OFFCURVE",
"282 429 CURVE SMOOTH",
"311 429 OFFCURVE",
"331 421 OFFCURVE",
"345 413 CURVE",
"360 500 LINE",
"340 508 OFFCURVE",
"320 512 OFFCURVE",
"300 512 CURVE SMOOTH",
"205 512 OFFCURVE",
"152 425 OFFCURVE",
"152 276 CURVE",
"189 252 LINE"
);
},
{
closed = 1;
nodes = (
"189 0 LINE",
"189 390 LINE",
"183 408 LINE",
"183 441 OFFCURVE",
"182 471 OFFCURVE",
"179 500 CURVE",
"95 487 LINE",
"98 461 OFFCURVE",
"99 438 OFFCURVE",
"99 407 CURVE",
"99 0 LINE"
);
}
);
width = 390;
},
{
layerId = "2F5B831B-86AF-41A9-958D-3871EE4B7007";
paths = (
{
closed = 1;
nodes = (
"239 366 OFFCURVE",
"300 376 OFFCURVE",
"331 376 CURVE SMOOTH",
"357 376 OFFCURVE",
"378 369 OFFCURVE",
"398 352 CURVE",
"421 506 LINE",
"401 518 OFFCURVE",
"377 524 OFFCURVE",
"351 524 CURVE SMOOTH",
"260 524 OFFCURVE",
"208 452 OFFCURVE",
"208 305 CURVE",
"239 258 LINE"
);
},
{
closed = 1;
nodes = (
"239 0 LINE",
"239 402 LINE",
"233 420 LINE",
"233 453 OFFCURVE",
"232 483 OFFCURVE",
"229 512 CURVE",
"45 499 LINE",
"48 473 OFFCURVE",
"49 450 OFFCURVE",
"49 419 CURVE",
"49 0 LINE"
);
}
);
width = 429;
}
);
leftMetricsKey = n;
unicode = 0072;
},
{
glyphname = s;
lastChange = "2017-10-11 04:38:28 +0000";
layers = (
{
anchors = (
{
name = bottom;
position = "{227, 0}";
},
{
name = top;
position = "{227, 486}";
}
);
annotations = (
{
position = "{96.194, 388.868}";
type = Minus;
}
);
layerId = "44A3F285-AC1C-4A7F-B2BD-0C498DBF5AFB";
paths = (
{
closed = 1;
nodes = (
"330 496 OFFCURVE",
"290 512 OFFCURVE",
"231 512 CURVE SMOOTH",
"129 512 OFFCURVE",
"61 464 OFFCURVE",
"61 382 CURVE SMOOTH",
"61 317 OFFCURVE",
"102 268 OFFCURVE",
"200 227 CURVE SMOOTH",
"282 193 OFFCURVE",
"305 178 OFFCURVE",
"305 134 CURVE SMOOTH",
"305 83 OFFCURVE",
"274 56 OFFCURVE",
"219 56 CURVE SMOOTH",
"174 56 OFFCURVE",
"121 74 OFFCURVE",
"78 116 CURVE",
"42 59 LINE",
"94 6 OFFCURVE",
"163 -12 OFFCURVE",
"222 -12 CURVE SMOOTH",
"329 -12 OFFCURVE",
"395 49 OFFCURVE",
"395 136 CURVE SMOOTH",
"395 213 OFFCURVE",
"345 253 OFFCURVE",
"257 291 CURVE SMOOTH",
"181 324 OFFCURVE",
"148 339 OFFCURVE",
"148 385 CURVE SMOOTH",
"148 426 OFFCURVE",
"175 447 OFFCURVE",
"231 447 CURVE SMOOTH",
"274 447 OFFCURVE",
"311 435 OFFCURVE",
"343 415 CURVE",
"368 474 LINE"
);
}
);
width = 455;
},
{
layerId = "2F5B831B-86AF-41A9-958D-3871EE4B7007";
paths = (
{
closed = 1;
nodes = (
"364 504 OFFCURVE",
"312 524 OFFCURVE",
"231 524 CURVE SMOOTH",
"117 524 OFFCURVE",
"26 474 OFFCURVE",
"26 370 CURVE SMOOTH",
"26 302 OFFCURVE",
"59 255 OFFCURVE",
"147 217 CURVE SMOOTH",
"233 180 OFFCURVE",
"244 170 OFFCURVE",
"244 153 CURVE SMOOTH",
"244 129 OFFCURVE",
"222 122 OFFCURVE",
"189 122 CURVE SMOOTH",
"135 122 OFFCURVE",
"95 144 OFFCURVE",
"58 175 CURVE",
"-1 60 LINE",
"69 2 OFFCURVE",
"144 -18 OFFCURVE",
"214 -18 CURVE SMOOTH",
"352 -18 OFFCURVE",
"443 60 OFFCURVE",
"443 157 CURVE SMOOTH",
"443 219 OFFCURVE",
"409 274 OFFCURVE",
"316 312 CURVE SMOOTH",
"245 341 OFFCURVE",
"222 353 OFFCURVE",
"222 375 CURVE SMOOTH",
"222 395 OFFCURVE",
"241 401 OFFCURVE",
"268 401 CURVE SMOOTH",
"311 401 OFFCURVE",
"344 386 OFFCURVE",
"371 368 CURVE",
"413 480 LINE"
);
}
);
width = 454;
}
);
unicode = 0073;
},
{
glyphname = t;
lastChange = "2017-10-09 17:18:10 +0000";
layers = (
{
anchors = (
{
name = bottom;
position = "{185, 0}";
},
{
name = center;
position = "{185, 243}";
},
{
name = top;
position = "{185, 486}";
},
{
name = topright;
position = "{350, 486}";
}
);
layerId = "44A3F285-AC1C-4A7F-B2BD-0C498DBF5AFB";
paths = (
{
closed = 1;
nodes = (
"286 -12 OFFCURVE",
"317 4 OFFCURVE",
"350 30 CURVE",
"323 84 LINE",
"293 62 OFFCURVE",
"277 53 OFFCURVE",
"249 53 CURVE SMOOTH",
"194 53 OFFCURVE",
"187 99 OFFCURVE",
"187 168 CURVE SMOOTH",
"187 457 LINE",
"185 475 LINE",
"185 534 LINE",
"185 566 OFFCURVE",
"183 595 OFFCURVE",
"179 623 CURVE",
"93 611 LINE",
"96 585 OFFCURVE",
"97 563 OFFCURVE",
"97 533 CURVE",
"97 173 LINE",
"97 73 OFFCURVE",
"114 -12 OFFCURVE",
"234 -12 CURVE SMOOTH"
);
},
{
closed = 1;
nodes = (
"304 440 LINE",
"304 500 LINE",
"32 500 LINE",
"32 440 LINE"
);
}
);
width = 365;
},
{
layerId = "2F5B831B-86AF-41A9-958D-3871EE4B7007";
paths = (
{
closed = 1;
nodes = (
"287 -12 OFFCURVE",
"328 3 OFFCURVE",
"364 28 CURVE",
"333 152 LINE",
"317 139 OFFCURVE",
"302 133 OFFCURVE",
"285 133 CURVE SMOOTH",
"272 133 OFFCURVE",
"257 137 OFFCURVE",
"257 165 CURVE SMOOTH",
"257 457 LINE",
"255 475 LINE",
"255 534 LINE",
"255 566 OFFCURVE",
"253 595 OFFCURVE",
"249 623 CURVE",
"63 611 LINE",
"66 585 OFFCURVE",
"67 563 OFFCURVE",
"67 533 CURVE",
"67 155 LINE SMOOTH",
"67 31 OFFCURVE",
"124 -12 OFFCURVE",
"225 -12 CURVE SMOOTH"
);
},
{
closed = 1;
nodes = (
"362 396 LINE",
"362 506 LINE",
"10 506 LINE",
"10 396 LINE"
);
}
);
width = 376;
}
);
unicode = 0074;
},
{
glyphname = u;
lastChange = "2017-10-07 21:58:20 +0000";
layers = (
{
anchors = (
{
name = bottom;
position = "{263, 0}";
},
{
name = ogonek;
position = "{464, 10}";
},
{
name = top;
position = "{263, 486}";
},
{
name = topright;
position = "{495, 486}";
}
);
layerId = "44A3F285-AC1C-4A7F-B2BD-0C498DBF5AFB";
paths = (
{
closed = 1;
nodes = (
"368 0 LINE",
"363 31 OFFCURVE",
"362 59 OFFCURVE",
"362 92 CURVE",
"358 110 LINE",
"358 500 LINE",
"448 500 LINE",
"448 93 LINE",
"448 62 OFFCURVE",
"450 32 OFFCURVE",
"455 0 CURVE"
);
},
{
closed = 1;
nodes = (
"134 -12 OFFCURVE",
"80 53 OFFCURVE",
"80 161 CURVE SMOOTH",
"80 500 LINE",
"170 500 LINE",
"170 165 LINE SMOOTH",
"170 91 OFFCURVE",
"200 56 OFFCURVE",
"251 56 CURVE SMOOTH",
"316 56 OFFCURVE",
"358 113 OFFCURVE",
"358 247 CURVE",
"393 219 LINE",
"393 68 OFFCURVE",
"337 -12 OFFCURVE",
"231 -12 CURVE SMOOTH"
);
}
);
width = 533;
},
{
annotations = (
{
position = "{275.047, 71.532}";
type = Plus;
}
);
layerId = "2F5B831B-86AF-41A9-958D-3871EE4B7007";
paths = (
{
closed = 1;
nodes = (
"301 0 LINE",
"296 32 OFFCURVE",
"295 60 OFFCURVE",
"295 93 CURVE",
"291 111 LINE",
"291 506 LINE",
"481 506 LINE",
"481 94 LINE",
"481 63 OFFCURVE",
"483 33 OFFCURVE",
"488 0 CURVE"
);
},
{
closed = 1;
nodes = (
"84 -18 OFFCURVE",
"32 54 OFFCURVE",
"32 163 CURVE",
"32 506 LINE",
"222 506 LINE",
"222 175 LINE",
"222 118 OFFCURVE",
"236 101 OFFCURVE",
"256 101 CURVE",
"276 101 OFFCURVE",
"291 119 OFFCURVE",
"291 205 CURVE",
"324 190 LINE",
"324 44 OFFCURVE",
"277 -18 OFFCURVE",
"185 -18 CURVE"
);
}
);
width = 516;
}
);
unicode = 0075;
},
{
glyphname = v;
lastChange = "2017-10-13 04:28:05 +0000";
layers = (
{
anchors = (
{
name = bottom;
position = "{227, 0}";
},
{
name = top;
position = "{227, 486}";
}
);
layerId = "44A3F285-AC1C-4A7F-B2BD-0C498DBF5AFB";
paths = (
{
closed = 1;
nodes = (
"179 0 LINE",
"284 0 LINE",
"436 500 LINE",
"349 500 LINE",
"234 77 LINE",
"125 500 LINE",
"30 500 LINE"
);
}
);
width = 466;
},
{
layerId = "2F5B831B-86AF-41A9-958D-3871EE4B7007";
paths = (
{
closed = 1;
nodes = (
"126 0 LINE",
"358 0 LINE",
"504 506 LINE",
"324 506 LINE",
"247 129 LINE",
"182 506 LINE",
"-12 506 LINE"
);
}
);
width = 492;
}
);
unicode = 0076;
},
{
glyphname = w;
lastChange = "2017-10-13 04:28:02 +0000";
layers = (
{
anchors = (
{
name = bottom;
position = "{345, 0}";
},
{
name = top;
position = "{345, 486}";
}
);
layerId = "44A3F285-AC1C-4A7F-B2BD-0C498DBF5AFB";
paths = (
{
closed = 1;
nodes = (
"156 0 LINE",
"266 0 LINE",
"357 423 LINE",
"445 0 LINE",
"560 0 LINE",
"677 500 LINE",
"591 500 LINE",
"505 72 LINE",
"412 500 LINE",
"304 500 LINE",
"214 73 LINE",
"126 500 LINE",
"30 500 LINE"
);
}
);
width = 707;
},
{
layerId = "2F5B831B-86AF-41A9-958D-3871EE4B7007";
width = 600;
}
);
unicode = 0077;
},
{
glyphname = x;
lastChange = "2017-10-07 22:23:09 +0000";
layers = (
{
anchors = (
{
name = bottom;
position = "{222, 0}";
},
{
name = top;
position = "{222, 486}";
}
);
layerId = "44A3F285-AC1C-4A7F-B2BD-0C498DBF5AFB";
paths = (
{
closed = 1;
nodes = (
"138 500 LINE",
"229 322 LINE",
"274 262 LINE",
"445 0 LINE",
"339 0 LINE",
"227 203 LINE",
"182 262 LINE",
"32 500 LINE"
);
},
{
closed = 1;
nodes = (
"427 500 LINE",
"274 262 LINE",
"227 203 LINE",
"111 0 LINE",
"10 0 LINE",
"182 262 LINE",
"229 322 LINE",
"326 500 LINE"
);
}
);
width = 455;
},
{
layerId = "2F5B831B-86AF-41A9-958D-3871EE4B7007";
width = 600;
}
);
unicode = 0078;
},
{
glyphname = y;
lastChange = "2017-10-14 01:14:35 +0000";
layers = (
{
anchors = (
{
name = bottom;
position = "{234, 0}";
},
{
name = top;
position = "{234, 486}";
}
);
layerId = "44A3F285-AC1C-4A7F-B2BD-0C498DBF5AFB";
paths = (
{
closed = 1;
nodes = (
"61 -214 LINE",
"197 -205 OFFCURVE",
"236 -114 OFFCURVE",
"276 0 CURVE SMOOTH",
"450 500 LINE",
"356 500 LINE",
"236 109 LINE",
"128 500 LINE",
"29 500 LINE",
"188 4 LINE",
"165 -82 OFFCURVE",
"141 -129 OFFCURVE",
"50 -133 CURVE"
);
}
);
width = 477;
},
{
layerId = "2F5B831B-86AF-41A9-958D-3871EE4B7007";
width = 600;
}
);
unicode = 0079;
},
{
glyphname = z;
lastChange = "2017-10-07 22:23:36 +0000";
layers = (
{
anchors = (
{
name = bottom;
position = "{232, 0}";
},
{
name = top;
position = "{232, 486}";
}
);
layerId = "44A3F285-AC1C-4A7F-B2BD-0C498DBF5AFB";
paths = (
{
closed = 1;
nodes = (
"322 429 LINE",
"55 62 LINE",
"55 0 LINE",
"428 0 LINE",
"418 70 LINE",
"155 70 LINE",
"421 438 LINE",
"421 500 LINE",
"75 500 LINE",
"75 429 LINE"
);
}
);
width = 473;
},
{
layerId = "2F5B831B-86AF-41A9-958D-3871EE4B7007";
paths = (
{
closed = 1;
nodes = (
"222 386 LINE",
"15 114 LINE",
"15 0 LINE",
"442 0 LINE",
"432 122 LINE",
"228 122 LINE",
"434 395 LINE",
"434 506 LINE",
"38 506 LINE",
"38 386 LINE"
);
}
);
width = 452;
}
);
unicode = 007A;
},
{
glyphname = a.001;
lastChange = "2018-09-18 21:15:13 +0000";
layers = (
{
anchors = (
{
name = bottom;
position = "{255, 0}";
},
{
name = ogonek;
position = "{417, 0}";
},
{
name = top;
position = "{228, 486}";
}
);
backgroundImage = {
crop = "{{0, 0}, {825, 936}}";
imagePath = ../../../Downloads/IMG_7002.JPG;
locked = "1";
transform = "{0.65938, 0, 0, 0.65938, 0, -62.994}";
};
layerId = "44A3F285-AC1C-4A7F-B2BD-0C498DBF5AFB";
paths = (
{
closed = 1;
nodes = (
"519 499 LINE",
"484 384 OFFCURVE",
"432 190 OFFCURVE",
"432 124 CURVE SMOOTH",
"432 67 OFFCURVE",
"439 42 OFFCURVE",
"449 19 CURVE",
"356 -12 LINE",
"345 20 OFFCURVE",
"339 66 OFFCURVE",
"343 111 CURVE SMOOTH",
"349 188 OFFCURVE",
"390 353 OFFCURVE",
"432 499 CURVE"
);
},
{
closed = 1;
nodes = (
"409 394 LINE",
"395 432 OFFCURVE",
"365 454 OFFCURVE",
"329 454 CURVE SMOOTH",
"208 454 OFFCURVE",
"144 267 OFFCURVE",
"144 146 CURVE SMOOTH",
"144 101 OFFCURVE",
"163 74 OFFCURVE",
"198 74 CURVE SMOOTH",
"311 74 OFFCURVE",
"365 257 OFFCURVE",
"402 370 CURVE",
"412 348 LINE",
"375 190 OFFCURVE",
"304 -13 OFFCURVE",
"167 -13 CURVE SMOOTH",
"80 -13 OFFCURVE",
"39 88 OFFCURVE",
"39 156 CURVE SMOOTH",
"39 317 OFFCURVE",
"177 512 OFFCURVE",
"308 512 CURVE SMOOTH",
"370 512 OFFCURVE",
"400 485 OFFCURVE",
"423 429 CURVE"
);
}
);
width = 505;
},
{
annotations = (
{
position = "{123.65, 103.185}";
type = Minus;
},
{
position = "{123.65, 74.853}";
type = Minus;
}
);
layerId = "2F5B831B-86AF-41A9-958D-3871EE4B7007";
paths = (
{
closed = 1;
nodes = (
"86 504 OFFCURVE",
"144 524 OFFCURVE",
"224 524 CURVE",
"364 524 OFFCURVE",
"458 466 OFFCURVE",
"458 329 CURVE SMOOTH",
"458 127 LINE SMOOTH",
"458 113 OFFCURVE",
"465 107 OFFCURVE",
"476 107 CURVE SMOOTH",
"482 107 OFFCURVE",
"487 109 OFFCURVE",
"494 114 CURVE",
"514 6 LINE",
"481 -9 OFFCURVE",
"448 -18 OFFCURVE",
"411 -18 CURVE SMOOTH",
"339 -18 OFFCURVE",
"284 16 OFFCURVE",
"284 96 CURVE",
"271 146 LINE",
"271 330 LINE SMOOTH",
"271 377 OFFCURVE",
"248 399 OFFCURVE",
"197 399 CURVE SMOOTH",
"149 399 OFFCURVE",
"109 379 OFFCURVE",
"80 358 CURVE",
"31 470 LINE"
);
},
{
closed = 1;
nodes = (
"280 243 LINE",
"240 238 LINE SMOOTH",
"204 233 OFFCURVE",
"187 209 OFFCURVE",
"187 186 CURVE SMOOTH",
"187 165 OFFCURVE",
"201 151 OFFCURVE",
"221 151 CURVE SMOOTH",
"243 151 OFFCURVE",
"271 168 OFFCURVE",
"271 212 CURVE",
"300 174 LINE",
"300 32 OFFCURVE",
"243 -18 OFFCURVE",
"160 -18 CURVE SMOOTH",
"59 -18 OFFCURVE",
"8 58 OFFCURVE",
"8 147 CURVE SMOOTH",
"8 250 OFFCURVE",
"76 313 OFFCURVE",
"180 332 CURVE SMOOTH",
"280 350 LINE"
);
}
);
width = 514;
}
);
},
{
glyphname = zero;
lastChange = "2017-10-11 04:38:33 +0000";
layers = (
{
layerId = "44A3F285-AC1C-4A7F-B2BD-0C498DBF5AFB";
paths = (
{
closed = 1;
nodes = (
"438 -12 OFFCURVE",
"540 94 OFFCURVE",
"540 271 CURVE SMOOTH",
"540 446 OFFCURVE",
"438 552 OFFCURVE",
"291 552 CURVE SMOOTH",
"142 552 OFFCURVE",
"40 446 OFFCURVE",
"40 271 CURVE SMOOTH",
"40 94 OFFCURVE",
"142 -12 OFFCURVE",
"291 -12 CURVE SMOOTH"
);
},
{
closed = 1;
nodes = (
"201 60 OFFCURVE",
"136 133 OFFCURVE",
"136 271 CURVE SMOOTH",
"136 408 OFFCURVE",
"201 480 OFFCURVE",
"291 480 CURVE SMOOTH",
"380 480 OFFCURVE",
"444 408 OFFCURVE",
"444 271 CURVE SMOOTH",
"444 133 OFFCURVE",
"380 60 OFFCURVE",
"291 60 CURVE SMOOTH"
);
}
);
width = 580;
},
{
layerId = "2F5B831B-86AF-41A9-958D-3871EE4B7007";
width = 600;
}
);
unicode = 0030;
},
{
glyphname = one;
lastChange = "2017-10-10 15:03:08 +0000";
layers = (
{
layerId = "44A3F285-AC1C-4A7F-B2BD-0C498DBF5AFB";
paths = (
{
closed = 1;
nodes = (
"46 323 LINE",
"100 348 OFFCURVE",
"138 382 OFFCURVE",
"171 420 CURVE",
"168 398 OFFCURVE",
"167 380 OFFCURVE",
"167 361 CURVE SMOOTH",
"167 0 LINE",
"252 0 LINE",
"252 540 LINE",
"176 540 LINE",
"141 472 OFFCURVE",
"92 429 OFFCURVE",
"20 395 CURVE"
);
}
);
width = 347;
},
{
layerId = "2F5B831B-86AF-41A9-958D-3871EE4B7007";
width = 600;
}
);
unicode = 0031;
},
{
glyphname = two;
lastChange = "2017-10-12 23:00:48 +0000";
layers = (
{
layerId = "44A3F285-AC1C-4A7F-B2BD-0C498DBF5AFB";
paths = (
{
closed = 1;
nodes = (
"79 420 LINE",
"122 458 OFFCURVE",
"165 478 OFFCURVE",
"209 478 CURVE SMOOTH",
"258 478 OFFCURVE",
"290 452 OFFCURVE",
"290 404 CURVE SMOOTH",
"290 364 OFFCURVE",
"267 284 OFFCURVE",
"35 73 CURVE",
"35 0 LINE",
"405 0 LINE",
"393 75 LINE",
"207 75 LINE SMOOTH",
"187 75 OFFCURVE",
"165 74 OFFCURVE",
"140 69 CURVE",
"315 234 OFFCURVE",
"382 317 OFFCURVE",
"382 407 CURVE SMOOTH",
"382 503 OFFCURVE",
"307 552 OFFCURVE",
"212 552 CURVE SMOOTH",
"141 552 OFFCURVE",
"90 524 OFFCURVE",
"39 483 CURVE"
);
}
);
width = 455;
},
{
layerId = "2F5B831B-86AF-41A9-958D-3871EE4B7007";
width = 600;
}
);
unicode = 0032;
},
{
glyphname = three;
lastChange = "2017-10-11 14:51:30 +0000";
layers = (
{
layerId = "44A3F285-AC1C-4A7F-B2BD-0C498DBF5AFB";
paths = (
{
closed = 1;
nodes = (
"56 423 LINE",
"96 459 OFFCURVE",
"133 478 OFFCURVE",
"179 478 CURVE SMOOTH",
"230 478 OFFCURVE",
"266 454 OFFCURVE",
"266 398 CURVE SMOOTH",
"266 324 OFFCURVE",
"204 289 OFFCURVE",
"121 289 CURVE",
"121 220 LINE",
"212 220 OFFCURVE",
"292 190 OFFCURVE",
"292 99 CURVE SMOOTH",
"292 23 OFFCURVE",
"238 -17 OFFCURVE",
"161 -17 CURVE SMOOTH",
"121 -17 OFFCURVE",
"81 -6 OFFCURVE",
"38 15 CURVE",
"10 -48 LINE",
"61 -75 OFFCURVE",
"116 -88 OFFCURVE",
"170 -88 CURVE SMOOTH",
"307 -88 OFFCURVE",
"384 -3 OFFCURVE",
"384 99 CURVE SMOOTH",
"384 203 OFFCURVE",
"302 250 OFFCURVE",
"243 261 CURVE",
"298 283 OFFCURVE",
"357 321 OFFCURVE",
"357 406 CURVE SMOOTH",
"357 493 OFFCURVE",
"295 552 OFFCURVE",
"191 552 CURVE SMOOTH",
"124 552 OFFCURVE",
"76 528 OFFCURVE",
"20 485 CURVE"
);
}
);
width = 424;
},
{
layerId = "2F5B831B-86AF-41A9-958D-3871EE4B7007";
width = 600;
}
);
unicode = 0033;
},
{
glyphname = four;
lastChange = "2017-10-11 14:24:21 +0000";
layers = (
{
layerId = "44A3F285-AC1C-4A7F-B2BD-0C498DBF5AFB";
paths = (
{
closed = 1;
nodes = (
"370 335 LINE",
"287 335 LINE",
"287 -76 LINE",
"370 -76 LINE"
);
},
{
closed = 1;
nodes = (
"54 77 LINE",
"448 77 LINE",
"438 143 LINE",
"117 143 LINE",
"214 276 OFFCURVE",
"258 395 OFFCURVE",
"282 540 CURVE",
"194 540 LINE",
"170 395 OFFCURVE",
"125 275 OFFCURVE",
"20 134 CURVE"
);
}
);
width = 473;
},
{
layerId = "2F5B831B-86AF-41A9-958D-3871EE4B7007";
width = 600;
}
);
unicode = 0034;
},
{
glyphname = five;
lastChange = "2017-10-11 14:24:33 +0000";
layers = (
{
layerId = "44A3F285-AC1C-4A7F-B2BD-0C498DBF5AFB";
paths = (
{
closed = 1;
nodes = (
"88 540 LINE",
"55 252 LINE",
"95 209 LINE",
"134 236 OFFCURVE",
"170 250 OFFCURVE",
"209 250 CURVE SMOOTH",
"285 250 OFFCURVE",
"318 197 OFFCURVE",
"318 126 CURVE SMOOTH",
"318 53 OFFCURVE",
"283 -17 OFFCURVE",
"181 -17 CURVE SMOOTH",
"139 -17 OFFCURVE",
"104 -5 OFFCURVE",
"68 15 CURVE",
"40 -48 LINE",
"81 -74 OFFCURVE",
"130 -88 OFFCURVE",
"184 -88 CURVE SMOOTH",
"333 -88 OFFCURVE",
"411 17 OFFCURVE",
"411 126 CURVE SMOOTH",
"411 228 OFFCURVE",
"347 317 OFFCURVE",
"231 317 CURVE SMOOTH",
"196 317 OFFCURVE",
"161 309 OFFCURVE",
"134 296 CURVE",
"161 469 LINE",
"361 469 LINE",
"371 540 LINE"
);
}
);
width = 456;
},
{
layerId = "2F5B831B-86AF-41A9-958D-3871EE4B7007";
width = 600;
}
);
unicode = 0035;
},
{
glyphname = six;
lastChange = "2017-10-12 23:01:10 +0000";
layers = (
{
layerId = "44A3F285-AC1C-4A7F-B2BD-0C498DBF5AFB";
paths = (
{
closed = 1;
nodes = (
"50 115 OFFCURVE",
"92 -12 OFFCURVE",
"242 -12 CURVE SMOOTH",
"374 -12 OFFCURVE",
"432 100 OFFCURVE",
"432 212 CURVE SMOOTH",
"432 358 OFFCURVE",
"347 411 OFFCURVE",
"262 411 CURVE SMOOTH",
"208 411 OFFCURVE",
"167 389 OFFCURVE",
"138 351 CURVE",
"139 427 OFFCURVE",
"156 546 OFFCURVE",
"271 546 CURVE SMOOTH",
"309 546 OFFCURVE",
"341 533 OFFCURVE",
"373 512 CURVE",
"407 571 LINE",
"375 593 OFFCURVE",
"328 616 OFFCURVE",
"265 616 CURVE SMOOTH",
"100 616 OFFCURVE",
"50 461 OFFCURVE",
"50 318 CURVE SMOOTH"
);
},
{
closed = 1;
nodes = (
"148 294 OFFCURVE",
"184 346 OFFCURVE",
"242 346 CURVE SMOOTH",
"308 346 OFFCURVE",
"336 282 OFFCURVE",
"336 207 CURVE SMOOTH",
"336 132 OFFCURVE",
"308 58 OFFCURVE",
"244 58 CURVE SMOOTH",
"182 58 OFFCURVE",
"148 126 OFFCURVE",
"148 207 CURVE SMOOTH"
);
}
);
width = 472;
},
{
layerId = "2F5B831B-86AF-41A9-958D-3871EE4B7007";
width = 600;
}
);
unicode = 0036;
},
{
glyphname = seven;
lastChange = "2017-10-12 23:10:48 +0000";
layers = (
{
layerId = "44A3F285-AC1C-4A7F-B2BD-0C498DBF5AFB";
paths = (
{
closed = 1;
nodes = (
"12 465 LINE",
"278 465 LINE",
"200 360 OFFCURVE",
"115 143 OFFCURVE",
"115 -76 CURVE",
"208 -76 LINE",
"208 175 OFFCURVE",
"289 363 OFFCURVE",
"370 472 CURVE",
"370 540 LINE",
"12 540 LINE"
);
}
);
width = 400;
},
{
layerId = "2F5B831B-86AF-41A9-958D-3871EE4B7007";
width = 600;
}
);
unicode = 0037;
},
{
glyphname = eight;
lastChange = "2017-10-13 00:35:45 +0000";
layers = (
{
layerId = "44A3F285-AC1C-4A7F-B2BD-0C498DBF5AFB";
paths = (
{
closed = 1;
nodes = (
"121 616 OFFCURVE",
"61 545 OFFCURVE",
"61 469 CURVE SMOOTH",
"61 393 OFFCURVE",
"106 354 OFFCURVE",
"202 293 CURVE SMOOTH",
"301 230 OFFCURVE",
"320 202 OFFCURVE",
"320 158 CURVE SMOOTH",
"320 100 OFFCURVE",
"286 56 OFFCURVE",
"221 56 CURVE SMOOTH",
"168 56 OFFCURVE",
"128 91 OFFCURVE",
"128 158 CURVE SMOOTH",
"128 216 OFFCURVE",
"167 265 OFFCURVE",
"211 292 CURVE",
"157 327 LINE",
"106 304 OFFCURVE",
"37 254 OFFCURVE",
"37 162 CURVE SMOOTH",
"37 44 OFFCURVE",
"119 -12 OFFCURVE",
"219 -12 CURVE SMOOTH",
"319 -12 OFFCURVE",
"411 51 OFFCURVE",
"411 162 CURVE SMOOTH",
"411 236 OFFCURVE",
"375 275 OFFCURVE",
"248 354 CURVE SMOOTH",
"165 406 OFFCURVE",
"148 444 OFFCURVE",
"148 476 CURVE SMOOTH",
"148 518 OFFCURVE",
"177 551 OFFCURVE",
"223 551 CURVE SMOOTH",
"268 551 OFFCURVE",
"301 518 OFFCURVE",
"301 476 CURVE SMOOTH",
"301 434 OFFCURVE",
"275 391 OFFCURVE",
"229 365 CURVE",
"282 330 LINE",
"343 362 OFFCURVE",
"388 408 OFFCURVE",
"388 476 CURVE SMOOTH",
"388 545 OFFCURVE",
"328 616 OFFCURVE",
"225 616 CURVE SMOOTH"
);
}
);
width = 448;
},
{
layerId = "2F5B831B-86AF-41A9-958D-3871EE4B7007";
width = 600;
}
);
unicode = 0038;
},
{
glyphname = nine;
lastChange = "2017-10-13 01:00:47 +0000";
layers = (
{
layerId = "44A3F285-AC1C-4A7F-B2BD-0C498DBF5AFB";
paths = (
{
closed = 1;
nodes = (
"419 449 OFFCURVE",
"382 552 OFFCURVE",
"233 552 CURVE SMOOTH",
"92 552 OFFCURVE",
"45 440 OFFCURVE",
"45 326 CURVE SMOOTH",
"45 177 OFFCURVE",
"127 121 OFFCURVE",
"215 121 CURVE SMOOTH",
"266 121 OFFCURVE",
"303 138 OFFCURVE",
"332 178 CURVE",
"332 112 OFFCURVE",
"318 -15 OFFCURVE",
"200 -15 CURVE SMOOTH",
"162 -15 OFFCURVE",
"129 -1 OFFCURVE",
"96 20 CURVE",
"62 -42 LINE",
"94 -65 OFFCURVE",
"142 -88 OFFCURVE",
"207 -88 CURVE SMOOTH",
"375 -88 OFFCURVE",
"419 66 OFFCURVE",
"419 252 CURVE SMOOTH"
);
},
{
closed = 1;
nodes = (
"325 240 OFFCURVE",
"291 190 OFFCURVE",
"232 190 CURVE SMOOTH",
"165 190 OFFCURVE",
"137 255 OFFCURVE",
"137 332 CURVE SMOOTH",
"137 413 OFFCURVE",
"165 481 OFFCURVE",
"231 481 CURVE SMOOTH",
"293 481 OFFCURVE",
"325 419 OFFCURVE",
"325 332 CURVE SMOOTH"
);
}
);
width = 472;
},
{
layerId = "2F5B831B-86AF-41A9-958D-3871EE4B7007";
width = 600;
}
);
unicode = 0039;
},
{
glyphname = period;
lastChange = "2017-10-14 01:10:32 +0000";
layers = (
{
layerId = "44A3F285-AC1C-4A7F-B2BD-0C498DBF5AFB";
paths = (
{
closed = 1;
nodes = (
"161 -12 OFFCURVE",
"190 14 OFFCURVE",
"190 52 CURVE SMOOTH",
"190 87 OFFCURVE",
"161 113 OFFCURVE",
"125 113 CURVE SMOOTH",
"88 113 OFFCURVE",
"60 87 OFFCURVE",
"60 52 CURVE SMOOTH",
"60 14 OFFCURVE",
"88 -12 OFFCURVE",
"125 -12 CURVE SMOOTH"
);
}
);
width = 250;
},
{
layerId = "2F5B831B-86AF-41A9-958D-3871EE4B7007";
paths = (
{
closed = 1;
nodes = (
"191 -18 OFFCURVE",
"235 22 OFFCURVE",
"235 81 CURVE SMOOTH",
"235 134 OFFCURVE",
"191 174 OFFCURVE",
"135 174 CURVE SMOOTH",
"78 174 OFFCURVE",
"35 134 OFFCURVE",
"35 81 CURVE SMOOTH",
"35 22 OFFCURVE",
"78 -18 OFFCURVE",
"135 -18 CURVE SMOOTH"
);
}
);
width = 270;
}
);
unicode = 002E;
},
{
glyphname = comma;
lastChange = "2017-10-14 01:10:50 +0000";
layers = (
{
layerId = "44A3F285-AC1C-4A7F-B2BD-0C498DBF5AFB";
paths = (
{
closed = 1;
nodes = (
"100 -167 LINE",
"189 54 LINE",
"88 78 LINE",
"35 -150 LINE"
);
}
);
width = 224;
},
{
layerId = "2F5B831B-86AF-41A9-958D-3871EE4B7007";
width = 600;
}
);
unicode = 002C;
},
{
glyphname = colon;
lastChange = "2017-10-14 01:11:41 +0000";
layers = (
{
layerId = "44A3F285-AC1C-4A7F-B2BD-0C498DBF5AFB";
paths = (
{
closed = 1;
nodes = (
"157 -9 OFFCURVE",
"184 15 OFFCURVE",
"184 52 CURVE SMOOTH",
"184 86 OFFCURVE",
"157 111 OFFCURVE",
"122 111 CURVE SMOOTH",
"86 111 OFFCURVE",
"60 86 OFFCURVE",
"60 52 CURVE SMOOTH",
"60 15 OFFCURVE",
"86 -9 OFFCURVE",
"122 -9 CURVE SMOOTH"
);
},
{
closed = 1;
nodes = (
"157 331 OFFCURVE",
"184 355 OFFCURVE",
"184 392 CURVE SMOOTH",
"184 426 OFFCURVE",
"157 451 OFFCURVE",
"122 451 CURVE SMOOTH",
"86 451 OFFCURVE",
"60 426 OFFCURVE",
"60 392 CURVE SMOOTH",
"60 355 OFFCURVE",
"86 331 OFFCURVE",
"122 331 CURVE SMOOTH"
);
}
);
width = 244;
},
{
layerId = "2F5B831B-86AF-41A9-958D-3871EE4B7007";
width = 600;
}
);
unicode = 003A;
},
{
glyphname = ellipsis;
lastChange = "2017-10-11 03:38:17 +0000";
layers = (
{
layerId = "44A3F285-AC1C-4A7F-B2BD-0C498DBF5AFB";
paths = (
{
closed = 1;
nodes = (
"141 -12 OFFCURVE",
"170 14 OFFCURVE",
"170 52 CURVE SMOOTH",
"170 87 OFFCURVE",
"141 113 OFFCURVE",
"105 113 CURVE SMOOTH",
"68 113 OFFCURVE",
"40 87 OFFCURVE",
"40 52 CURVE SMOOTH",
"40 14 OFFCURVE",
"68 -12 OFFCURVE",
"105 -12 CURVE SMOOTH"
);
},
{
closed = 1;
nodes = (
"336 -12 OFFCURVE",
"365 14 OFFCURVE",
"365 52 CURVE SMOOTH",
"365 87 OFFCURVE",
"336 113 OFFCURVE",
"300 113 CURVE SMOOTH",
"263 113 OFFCURVE",
"235 87 OFFCURVE",
"235 52 CURVE SMOOTH",
"235 14 OFFCURVE",
"263 -12 OFFCURVE",
"300 -12 CURVE SMOOTH"
);
},
{
closed = 1;
nodes = (
"531 -12 OFFCURVE",
"560 14 OFFCURVE",
"560 52 CURVE SMOOTH",
"560 87 OFFCURVE",
"531 113 OFFCURVE",
"495 113 CURVE SMOOTH",
"458 113 OFFCURVE",
"430 87 OFFCURVE",
"430 52 CURVE SMOOTH",
"430 14 OFFCURVE",
"458 -12 OFFCURVE",
"495 -12 CURVE SMOOTH"
);
}
);
width = 600;
},
{
layerId = "2F5B831B-86AF-41A9-958D-3871EE4B7007";
width = 600;
}
);
unicode = 2026;
},
{
glyphname = exclam;
lastChange = "2017-10-11 03:40:41 +0000";
layers = (
{
layerId = "44A3F285-AC1C-4A7F-B2BD-0C498DBF5AFB";
paths = (
{
closed = 1;
nodes = (
"181 -12 OFFCURVE",
"210 14 OFFCURVE",
"210 52 CURVE SMOOTH",
"210 87 OFFCURVE",
"181 113 OFFCURVE",
"145 113 CURVE SMOOTH",
"108 113 OFFCURVE",
"80 87 OFFCURVE",
"80 52 CURVE SMOOTH",
"80 14 OFFCURVE",
"108 -12 OFFCURVE",
"145 -12 CURVE SMOOTH"
);
},
{
closed = 1;
nodes = (
"109 214 LINE",
"181 214 LINE",
"192 685 LINE",
"98 685 LINE"
);
}
);
width = 290;
},
{
layerId = "2F5B831B-86AF-41A9-958D-3871EE4B7007";
width = 600;
}
);
unicode = 0021;
},
{
glyphname = hyphen;
lastChange = "2017-10-09 05:31:33 +0000";
layers = (
{
layerId = "44A3F285-AC1C-4A7F-B2BD-0C498DBF5AFB";
paths = (
{
closed = 1;
nodes = (
"60 314 LINE",
"60 239 LINE",
"300 239 LINE",
"300 314 LINE"
);
}
);
width = 360;
},
{
layerId = "2F5B831B-86AF-41A9-958D-3871EE4B7007";
width = 600;
}
);
unicode = 002D;
},
{
glyphname = emdash;
lastChange = "2017-10-09 16:48:55 +0000";
layers = (
{
layerId = "44A3F285-AC1C-4A7F-B2BD-0C498DBF5AFB";
paths = (
{
closed = 1;
nodes = (
"15 315 LINE",
"15 240 LINE",
"647 240 LINE",
"647 315 LINE"
);
}
);
width = 662;
},
{
layerId = "2F5B831B-86AF-41A9-958D-3871EE4B7007";
width = 600;
}
);
unicode = 2014;
},
{
glyphname = dotaccentcomb;
lastChange = "2017-10-05 20:20:12 +0000";
layers = (
{
anchors = (
{
name = _top;
position = "{83, 500}";
},
{
name = center;
position = "{83, 666}";
},
{
name = top;
position = "{83, 695}";
}
);
layerId = "44A3F285-AC1C-4A7F-B2BD-0C498DBF5AFB";
paths = (
{
closed = 1;
nodes = (
"118 586 OFFCURVE",
"146 611 OFFCURVE",
"146 648 CURVE SMOOTH",
"146 682 OFFCURVE",
"118 707 OFFCURVE",
"83 707 CURVE SMOOTH",
"47 707 OFFCURVE",
"20 682 OFFCURVE",
"20 648 CURVE SMOOTH",
"20 611 OFFCURVE",
"47 586 OFFCURVE",
"83 586 CURVE SMOOTH"
);
}
);
width = 166;
},
{
anchors = (
{
name = _top;
position = "{143, 506}";
},
{
name = center;
position = "{144, 670}";
},
{
name = top;
position = "{144, 736}";
}
);
layerId = "2F5B831B-86AF-41A9-958D-3871EE4B7007";
paths = (
{
closed = 1;
nodes = (
"204 549 OFFCURVE",
"253 592 OFFCURVE",
"253 657 CURVE SMOOTH",
"253 716 OFFCURVE",
"204 759 OFFCURVE",
"143 759 CURVE SMOOTH",
"80 759 OFFCURVE",
"32 716 OFFCURVE",
"32 657 CURVE SMOOTH",
"32 592 OFFCURVE",
"80 549 OFFCURVE",
"143 549 CURVE SMOOTH"
);
}
);
width = 287;
}
);
unicode = 0307;
},
{
glyphname = gravecomb;
lastChange = "2017-10-13 05:57:19 +0000";
layers = (
{
anchors = (
{
name = _top;
position = "{178, 500}";
},
{
name = top;
position = "{170, 670}";
}
);
layerId = "44A3F285-AC1C-4A7F-B2BD-0C498DBF5AFB";
paths = (
{
closed = 1;
nodes = (
"96 744 LINE",
"30 690 LINE",
"177 559 LINE",
"218 595 LINE"
);
}
);
width = 248;
},
{
layerId = "2F5B831B-86AF-41A9-958D-3871EE4B7007";
width = 600;
}
);
unicode = 0300;
},
{
glyphname = acutecomb;
lastChange = "2017-10-13 04:45:17 +0000";
layers = (
{
anchors = (
{
name = _top;
position = "{70, 500}";
},
{
name = top;
position = "{78, 670}";
}
);
layerId = "44A3F285-AC1C-4A7F-B2BD-0C498DBF5AFB";
paths = (
{
closed = 1;
nodes = (
"71 559 LINE",
"218 690 LINE",
"152 744 LINE",
"30 595 LINE"
);
}
);
width = 248;
},
{
layerId = "2F5B831B-86AF-41A9-958D-3871EE4B7007";
width = 600;
}
);
unicode = 0301;
},
{
glyphname = circumflexcomb;
lastChange = "2017-10-13 04:46:09 +0000";
layers = (
{
anchors = (
{
name = _top;
position = "{176, 500}";
},
{
name = top;
position = "{176, 676}";
}
);
layerId = "44A3F285-AC1C-4A7F-B2BD-0C498DBF5AFB";
paths = (
{
closed = 1;
nodes = (
"71 554 LINE",
"176 646 LINE",
"281 554 LINE",
"322 590 LINE",
"203 724 LINE",
"149 724 LINE",
"30 590 LINE"
);
}
);
width = 352;
},
{
layerId = "2F5B831B-86AF-41A9-958D-3871EE4B7007";
width = 600;
}
);
unicode = 0302;
},
{
glyphname = tildecomb;
lastChange = "2017-10-11 03:31:42 +0000";
layers = (
{
anchors = (
{
name = _top;
position = "{184, 486}";
},
{
name = top;
position = "{186, 682}";
}
);
layerId = "44A3F285-AC1C-4A7F-B2BD-0C498DBF5AFB";
paths = (
{
closed = 1;
nodes = (
"69 584 LINE",
"81 605 OFFCURVE",
"103 620 OFFCURVE",
"128 620 CURVE SMOOTH",
"170 620 OFFCURVE",
"188 577 OFFCURVE",
"237 577 CURVE SMOOTH",
"292 577 OFFCURVE",
"324 633 OFFCURVE",
"336 657 CURVE",
"298 689 LINE",
"288 667 OFFCURVE",
"267 653 OFFCURVE",
"242 653 CURVE SMOOTH",
"200 653 OFFCURVE",
"184 693 OFFCURVE",
"134 693 CURVE SMOOTH",
"80 693 OFFCURVE",
"47 645 OFFCURVE",
"30 618 CURVE"
);
}
);
width = 366;
},
{
layerId = "2F5B831B-86AF-41A9-958D-3871EE4B7007";
width = 600;
}
);
unicode = 0303;
},
{
glyphname = cedillacomb;
lastChange = "2017-09-19 23:26:03 +0000";
layers = (
{
anchors = (
{
name = _bottom;
position = "{101, 0}";
},
{
name = bottom;
position = "{108, -216}";
}
);
layerId = "44A3F285-AC1C-4A7F-B2BD-0C498DBF5AFB";
paths = (
{
closed = 1;
nodes = (
"132 -216 OFFCURVE",
"183 -189 OFFCURVE",
"183 -126 CURVE SMOOTH",
"183 -72 OFFCURVE",
"141 -52 OFFCURVE",
"116 -46 CURVE",
"133 11 LINE",
"86 11 LINE",
"53 -76 LINE",
"54 -78 LINE",
"100 -78 OFFCURVE",
"117 -99 OFFCURVE",
"117 -126 CURVE SMOOTH",
"117 -156 OFFCURVE",
"96 -171 OFFCURVE",
"68 -171 CURVE SMOOTH",
"58 -171 OFFCURVE",
"49 -169 OFFCURVE",
"40 -165 CURVE",
"32 -207 LINE",
"45 -213 OFFCURVE",
"63 -216 OFFCURVE",
"81 -216 CURVE SMOOTH"
);
}
);
width = 219;
},
{
layerId = "2F5B831B-86AF-41A9-958D-3871EE4B7007";
width = 600;
}
);
unicode = 0327;
},
{
glyphname = acute;
lastChange = "2017-10-13 05:12:19 +0000";
layers = (
{
layerId = "44A3F285-AC1C-4A7F-B2BD-0C498DBF5AFB";
paths = (
{
closed = 1;
nodes = (
"71 559 LINE",
"218 690 LINE",
"152 744 LINE",
"30 595 LINE"
);
}
);
width = 248;
},
{
layerId = "2F5B831B-86AF-41A9-958D-3871EE4B7007";
width = 600;
}
);
unicode = 00B4;
},
{
glyphname = cedilla;
lastChange = "2017-09-19 23:26:03 +0000";
layers = (
{
anchors = (
{
name = _bottom;
position = "{121, 0}";
},
{
name = bottom;
position = "{104, -216}";
}
);
layerId = "44A3F285-AC1C-4A7F-B2BD-0C498DBF5AFB";
paths = (
{
closed = 1;
nodes = (
"142 -216 OFFCURVE",
"189 -177 OFFCURVE",
"189 -122 CURVE SMOOTH",
"189 -70 OFFCURVE",
"146 -56 OFFCURVE",
"123 -50 CURVE",
"145 11 LINE",
"107 11 LINE",
"67 -76 LINE",
"113 -76 OFFCURVE",
"129 -100 OFFCURVE",
"129 -126 CURVE SMOOTH",
"129 -156 OFFCURVE",
"108 -178 OFFCURVE",
"77 -178 CURVE SMOOTH",
"70 -178 OFFCURVE",
"64 -177 OFFCURVE",
"54 -173 CURVE",
"50 -209 LINE",
"63 -214 OFFCURVE",
"75 -216 OFFCURVE",
"87 -216 CURVE SMOOTH"
);
}
);
width = 239;
},
{
layerId = "2F5B831B-86AF-41A9-958D-3871EE4B7007";
width = 600;
}
);
unicode = 00B8;
},
{
glyphname = circumflex;
lastChange = "2017-10-13 05:09:47 +0000";
layers = (
{
anchors = (
{
name = _top;
position = "{176, 500}";
}
);
layerId = "44A3F285-AC1C-4A7F-B2BD-0C498DBF5AFB";
paths = (
{
closed = 1;
nodes = (
"71 554 LINE",
"176 646 LINE",
"281 554 LINE",
"322 590 LINE",
"203 724 LINE",
"149 724 LINE",
"30 590 LINE"
);
}
);
width = 352;
},
{
layerId = "2F5B831B-86AF-41A9-958D-3871EE4B7007";
width = 600;
}
);
unicode = 02C6;
},
{
glyphname = grave;
lastChange = "2017-10-13 05:24:36 +0000";
layers = (
{
layerId = "44A3F285-AC1C-4A7F-B2BD-0C498DBF5AFB";
paths = (
{
closed = 1;
nodes = (
"96 744 LINE",
"30 690 LINE",
"177 559 LINE",
"218 595 LINE"
);
}
);
width = 248;
},
{
layerId = "2F5B831B-86AF-41A9-958D-3871EE4B7007";
width = 600;
}
);
unicode = 0060;
},
{
glyphname = gravecomb.case;
lastChange = "2017-10-13 06:14:12 +0000";
layers = (
{
anchors = (
{
name = _top;
position = "{174, 685}";
},
{
name = top;
position = "{175, 846}";
}
);
layerId = "44A3F285-AC1C-4A7F-B2BD-0C498DBF5AFB";
paths = (
{
closed = 1;
nodes = (
"75 877 LINE",
"30 807 LINE",
"202 722 LINE",
"231 768 LINE"
);
}
);
width = 261;
},
{
layerId = "2F5B831B-86AF-41A9-958D-3871EE4B7007";
width = 600;
}
);
},
{
glyphname = acutecomb.case;
lastChange = "2017-10-13 05:58:54 +0000";
layers = (
{
anchors = (
{
name = _top;
position = "{97, 685}";
},
{
name = top;
position = "{96, 846}";
}
);
layerId = "44A3F285-AC1C-4A7F-B2BD-0C498DBF5AFB";
paths = (
{
closed = 1;
nodes = (
"59 742 LINE",
"231 827 LINE",
"186 897 LINE",
"30 788 LINE"
);
}
);
width = 261;
},
{
layerId = "2F5B831B-86AF-41A9-958D-3871EE4B7007";
width = 600;
}
);
},
